<svg width="28" height="16" viewBox="0 0 28 16" fill="none" xmlns="http://www.w3.org/2000/svg">
<g clip-path="url(#clip0_6_141)">
<path d="M27.986 14.5181C27.986 14.9053 27.972 15.2858 27.986 15.6729C28 15.9132 27.8813 15.9866 27.665 15.9866C26.8484 15.9866 26.0319 16 25.2153 15.9866C24.8245 15.9866 24.664 15.7931 24.657 15.3725C24.6221 13.6971 24.2522 12.0951 23.4287 10.6066C22.6959 9.27158 21.6979 8.1435 20.4835 7.1823C20.3858 7.1022 20.2881 7.0221 20.1764 6.94867C19.9391 6.78847 19.8135 6.57487 19.9182 6.30787C20.0229 6.04087 20.2672 6.00082 20.5324 6.0075C22.654 6.04755 24.322 6.94867 25.662 8.47058C26.8554 9.83228 27.5742 11.4143 27.9441 13.1364C28.0349 13.577 27.9581 14.0509 27.9581 14.5048C27.9581 14.5048 27.972 14.5048 27.979 14.5048L27.986 14.5181Z" fill="black"/>
<path d="M16.0728 12.9295C16.324 12.6825 16.5543 12.4689 16.8056 12.2286C16.7497 12.1686 16.7009 12.1018 16.6381 12.0551C15.1934 10.947 13.5812 10.6734 11.8644 11.3142C10.1545 11.955 9.17744 13.1965 8.91224 14.9387C8.88432 15.1122 8.87734 15.2925 8.86338 15.466C8.84244 15.7797 8.65401 15.98 8.37485 15.9933C8.08871 16.0067 7.83048 15.7797 7.8584 15.466C7.90027 14.9587 7.94912 14.4447 8.08871 13.9641C8.82849 11.4543 11.3549 9.81895 14.0977 10.0326C16.7497 10.2395 18.9691 12.282 19.2901 14.8252C19.318 15.0388 19.325 15.2591 19.318 15.4794C19.318 15.7998 19.1296 15.9867 18.7946 15.9933C18.1176 16.0067 17.4476 16.0067 16.7707 15.9933C16.4287 15.9933 16.2542 15.8265 16.2263 15.4927C16.1844 14.9721 16.0588 14.4915 15.7447 14.0576C15.1027 13.1898 13.9721 12.8027 12.8903 13.0764C11.8225 13.35 11.0757 14.2245 10.9641 15.3459C10.9641 15.3993 10.9641 15.4527 10.9501 15.4994C10.9152 15.7998 10.7059 16 10.4267 15.9867C10.1475 15.9733 9.94514 15.7597 9.94514 15.4593C9.95212 14.6183 10.2452 13.8707 10.8245 13.2299C12.1156 11.8081 14.2582 11.6012 15.8215 12.7426C15.8983 12.796 15.975 12.8561 16.0728 12.9228V12.9295Z" fill="black"/>
<path d="M13.5673 6.01418C18.4735 6.01418 22.6749 9.44514 23.4008 14.0509C23.4705 14.4848 23.4845 14.9186 23.5054 15.3592C23.5264 15.753 23.324 15.9933 23.0029 15.9933C22.6959 15.9933 22.5074 15.7797 22.5005 15.3926C22.4307 13.1431 21.6071 11.194 19.974 9.57196C16.5892 6.22111 10.9152 6.11431 7.39078 9.33166C7.31401 9.40509 7.23724 9.47851 7.15349 9.54526C6.90923 9.74551 6.62309 9.74551 6.42069 9.54526C6.2183 9.35169 6.19736 9.05131 6.44861 8.85106C7.10464 8.33041 7.75369 7.77639 8.47254 7.34251C10.0219 6.41468 11.7248 6.00751 13.5603 6.00751L13.5673 6.01418Z" fill="black"/>
<path d="M12.9601 8.01668C17.5733 8.00333 20.9511 10.8869 21.3838 14.6717C21.4118 14.912 21.4187 15.1523 21.4187 15.3859C21.4187 15.7597 21.2233 15.9933 20.9163 15.9866C20.6162 15.9866 20.4277 15.773 20.4138 15.4126C20.344 13.4702 19.5763 11.8348 18.0409 10.5599C14.5932 7.68961 9.17049 8.87776 7.34895 12.8894C7.32802 12.9362 7.30708 12.9829 7.28614 13.0296C7.1326 13.33 6.87438 13.4501 6.60219 13.3433C6.31605 13.2299 6.19741 12.9428 6.36491 12.6358C6.67896 12.0684 6.96511 11.4743 7.36989 10.967C8.9332 9.01794 11.0339 8.06341 12.9601 8.01001V8.01668Z" fill="black"/>
<path d="M2.70095 9.35837C2.84751 10.0058 3.04293 10.5932 3.44073 11.1005C3.69198 11.4276 3.685 11.708 3.4198 11.8882C3.16157 12.0617 2.88939 12.0017 2.63814 11.6946C1.99607 10.9203 1.70993 10.0125 1.5843 9.05799C1.56336 8.91114 1.73086 8.65749 1.87742 8.59742C2.69397 8.26367 3.53146 7.96997 4.4527 8.01669C4.53645 8.01669 4.62717 8.01669 4.71092 8.03672C5.03196 8.09679 5.22039 8.29704 5.19248 8.56404C5.17154 8.84439 4.94123 9.03129 4.59926 8.99792C3.94323 8.94452 3.33605 9.13142 2.70095 9.35169V9.35837Z" fill="black"/>
<path d="M14.6351 1.18829C14.1745 1.56876 13.8186 2.00264 13.5813 2.52997C13.5115 2.69017 13.365 2.87039 13.2114 2.92379C13.0718 2.97052 12.8066 2.91044 12.7229 2.81032C12.6182 2.67682 12.5554 2.41649 12.6182 2.27632C12.8066 1.84912 13.0369 1.42859 13.3231 1.05479C13.5883 0.714363 13.9372 0.440688 14.2653 0.153662C14.4886 -0.0399129 14.7398 -0.0465879 14.9771 0.133637C15.7029 0.687663 16.3031 1.33514 16.6242 2.18287C16.7638 2.54999 16.687 2.81699 16.4009 2.93047C16.0938 3.05062 15.8286 2.91712 15.675 2.53664C15.4517 2.00264 15.0958 1.56876 14.6351 1.18829Z" fill="black"/>
<path d="M24.5802 4.23863C24.5453 4.51899 24.5244 4.79934 24.4685 5.07301C24.4057 5.36004 24.1824 5.50021 23.8963 5.45349C23.6031 5.40676 23.4915 5.21986 23.4845 4.93951C23.4636 4.41219 23.4287 3.88486 23.3938 3.36421C23.3798 3.14393 23.2542 3.07051 23.0448 3.17063C22.654 3.36421 22.2492 3.54443 21.8793 3.77138C21.5373 3.98498 21.2442 4.02503 21.0418 3.78473C20.8534 3.55778 20.9162 3.27743 21.2093 3.02378C21.8723 2.45641 22.661 2.15603 23.5264 2.02253C23.9172 1.96246 24.1056 2.06258 24.2103 2.43638C24.3778 3.02378 24.5034 3.62453 24.65 4.21861L24.5872 4.23863H24.5802Z" fill="black"/>
<path d="M6.9302 3.10387C6.88135 3.61784 6.83947 4.09177 6.80458 4.57237C6.7976 4.70587 6.8325 4.83937 6.83948 4.97287C6.83948 5.23987 6.70687 5.41342 6.42771 5.45347C6.14157 5.49352 5.9322 5.38005 5.86241 5.10637C5.69491 4.4589 5.74376 3.80474 5.8973 3.16394C5.96011 2.90362 6.05084 2.64329 6.13459 2.38964C6.22532 2.11597 6.42771 1.98247 6.72781 2.02252C7.64905 2.14934 8.48653 2.46307 9.17746 3.08384C9.42173 3.30412 9.44964 3.59114 9.24725 3.80474C9.05184 4.01167 8.75174 4.01835 8.49351 3.80474C8.06779 3.45097 7.57926 3.22402 6.9302 3.10387Z" fill="black"/>
<path d="M13.5953 15.9933C13.2603 15.9933 12.9183 16 12.5833 15.9933C12.2204 15.98 12.0459 15.8064 12.0389 15.466C12.0389 14.685 12.7299 14.0242 13.5674 14.0175C14.4188 14.0109 15.1307 14.665 15.1307 15.4527C15.1307 15.7998 14.9701 15.9666 14.6003 15.9933C14.5793 15.9933 14.5584 15.9933 14.5374 15.9933C14.2234 15.9933 13.9093 15.9933 13.5883 15.9933H13.5953Z" fill="black"/>
<path d="M1.97509 14.7851C1.70291 15.0321 1.42374 15.2791 1.15854 15.5261C1.04687 15.6262 0.963126 15.753 0.851461 15.8465C0.649068 16.02 0.418759 16.0267 0.195429 15.8665C-0.0139428 15.713 -0.0697753 15.4393 0.0907432 15.2257C0.697922 14.4514 1.4377 13.844 2.41477 13.5369C2.75675 13.4301 3.0708 13.6304 3.08476 13.9775C3.1057 14.4981 3.1057 15.0188 3.08476 15.5394C3.07778 15.7997 2.84049 15.9933 2.58925 15.9866C2.30311 15.9733 2.11467 15.8131 2.08676 15.5461C2.05884 15.3125 2.08676 15.0722 2.08676 14.8385C2.04488 14.8185 2.00999 14.8052 1.96811 14.7851H1.97509Z" fill="black"/>
<path d="M5.95315 15.0922C5.95315 14.8319 6.18345 14.6183 6.44866 14.6116C6.7348 14.6116 6.96511 14.8252 6.95813 15.0989C6.95813 15.3792 6.72782 15.5795 6.4347 15.5728C6.16252 15.5661 5.94617 15.3525 5.94617 15.0922H5.95315Z" fill="black"/>
</g>
<defs>
<clipPath id="clip0_6_141">
<rect width="28" height="16" fill="white"/>
</clipPath>
</defs>
</svg>
