<svg width="22" height="22" viewBox="0 0 22 22" fill="none" xmlns="http://www.w3.org/2000/svg">
<g clip-path="url(#clip0_6_139)">
<path d="M0 5.09767C0.0345766 4.82829 0.0530998 4.55582 0.1062 4.29013C0.238332 3.62773 0.53532 3.04221 1.01013 2.55817C1.63869 1.91792 2.24501 1.2506 2.92172 0.664463C3.95285 -0.228575 5.07103 -0.22427 6.06264 0.701366C7.11846 1.68666 8.13045 2.72116 9.1165 3.77595C9.85002 4.55951 9.84322 5.76069 9.13255 6.56639C8.60526 7.16421 8.02425 7.71467 7.45867 8.27805C7.35124 8.38445 7.32407 8.45395 7.39693 8.60094C7.96374 9.7443 8.76456 10.7155 9.63083 11.638C10.5187 12.5839 11.4955 13.4296 12.5939 14.1271C12.907 14.3257 13.2416 14.4906 13.5905 14.6843C13.9671 14.3042 14.332 13.929 14.7056 13.5619C14.955 13.3171 15.2057 13.0711 15.4743 12.8484C16.2695 12.1891 17.476 12.1786 18.2219 12.8878C19.3129 13.9247 20.3811 14.9881 21.4153 16.0811C22.1815 16.8911 22.1933 18.1168 21.4523 18.9502C20.7664 19.7209 20.0458 20.4688 19.2802 21.1607C18.4806 21.8827 17.481 22.0697 16.4214 21.9805C14.4382 21.8139 12.6773 21.0125 10.9719 20.0702C8.87755 18.9133 7.01226 17.4532 5.38099 15.7071C3.38666 13.5729 1.73686 11.2118 0.700794 8.46256C0.349471 7.52893 0.0728579 6.57623 0.0327243 5.57003C0.030872 5.51836 0.0111139 5.46793 0 5.41627C0 5.30986 0 5.20346 0 5.09706V5.09767ZM1.34664 5.28895C1.37133 5.5528 1.39233 5.81789 1.42196 6.08112C1.43555 6.20106 1.46457 6.31976 1.49112 6.43846C1.85294 8.04741 2.52903 9.52843 3.39098 10.9221C5.686 14.6326 8.73986 17.5338 12.6841 19.4675C13.898 20.0628 15.1507 20.5438 16.5171 20.6625C17.3501 20.7345 18.0873 20.5456 18.6856 19.93C19.1993 19.4011 19.7216 18.8801 20.236 18.3512C20.7929 17.7786 20.7935 17.3019 20.2366 16.7324C19.8587 16.3461 19.4728 15.9691 19.09 15.5878C18.5565 15.0564 18.0274 14.5207 17.4865 13.9961C17.0747 13.5963 16.6178 13.5926 16.1831 13.9659C16.1084 14.0305 16.038 14.1 15.9676 14.1701C15.444 14.6905 14.9241 15.2132 14.3975 15.7305C14.0301 16.0915 13.6232 16.1801 13.1873 15.9648C12.7378 15.7428 12.2914 15.5085 11.8678 15.2409C10.4471 14.3442 9.22208 13.2205 8.12119 11.9603C7.35432 11.082 6.65477 10.1564 6.16143 9.09113C5.77368 8.25345 5.82863 7.99205 6.49608 7.34995C7.02152 6.84377 7.54635 6.33452 8.04709 5.80436C8.42805 5.4015 8.4157 4.98451 8.06315 4.55767C8.01931 4.50478 7.97423 4.45311 7.92607 4.40514C7.02214 3.50226 6.11821 2.59877 5.21057 1.69896C5.11487 1.60425 5.00064 1.51998 4.88148 1.45787C4.49249 1.25675 4.10536 1.34716 3.70773 1.73586C3.19649 2.23589 2.70253 2.75314 2.1845 3.24579C1.59546 3.80547 1.32009 4.47956 1.34664 5.28772V5.28895Z" fill="black"/>
</g>
<defs>
<clipPath id="clip0_6_139">
<rect width="22" height="22" fill="white"/>
</clipPath>
</defs>
</svg>
