<svg width="1920" height="217" viewBox="0 0 1920 217" fill="none" xmlns="http://www.w3.org/2000/svg">
<path d="M1892.79 169.614V136.006H1883.92V115.956H1881.81V113.248C1881.81 113.248 1882.3 113 1882.3 112.823C1882.3 112.647 1882.57 112.371 1882.57 112.371L1883.64 112.208L1881.72 111.862C1881.72 111.862 1881.85 111.105 1881.59 110.9L1879.12 109.089L1879.01 107.654V107.477V107.562L1878.99 107.477V107.654L1878.87 109.089L1876.41 110.9C1876.15 111.098 1876.28 111.862 1876.28 111.862L1874.36 112.208L1875.43 112.371C1875.43 112.371 1875.68 112.654 1875.68 112.823C1875.68 112.993 1876.17 113.248 1876.17 113.248V115.956H1872.05V113.248C1872.05 113.248 1872.55 113 1872.55 112.823C1872.55 112.647 1872.81 112.371 1872.81 112.371L1873.88 112.208L1871.96 111.862C1871.96 111.862 1872.09 111.105 1871.82 110.9L1869.36 109.089L1869.24 107.654V107.477V107.562L1869.23 107.477V107.654L1869.11 109.089L1866.65 110.9C1866.39 111.098 1866.52 111.862 1866.52 111.862L1865.09 112.109C1864.87 110.567 1863.69 104.436 1859.25 103.545L1854.16 102.526L1855.1 101.932C1855.1 101.932 1854.83 101.586 1853.09 101.423C1851.35 101.26 1850.41 101.076 1849.74 100.751C1849.07 100.405 1848.26 99.4852 1848.26 99.4852L1849.33 99.1386C1849.33 99.1386 1847.85 98.5446 1847.72 98.2051C1847.59 97.8656 1848.38 97.2716 1847.99 97.024C1847.68 96.826 1846.93 95.1428 1846.65 94.4427V94.1456L1846.59 94.3012L1846.52 94.1456V94.4427C1846.23 95.1428 1845.49 96.826 1845.18 97.024C1844.77 97.2857 1845.59 97.8798 1845.45 98.2051C1845.32 98.5517 1843.84 99.1386 1843.84 99.1386L1844.91 99.4852C1844.91 99.4852 1844.12 100.419 1843.44 100.751C1842.77 101.098 1841.83 101.26 1840.08 101.423C1838.34 101.586 1838.07 101.932 1838.07 101.932L1839.01 102.526L1833.92 103.545C1828.84 104.563 1828.04 112.449 1828.04 112.449H1826.04V115.942H1824.06V113.234C1824.06 113.234 1824.66 112.986 1824.66 112.809C1824.66 112.632 1824.99 112.357 1824.99 112.357L1826.3 112.194L1823.97 111.847C1823.97 111.847 1824.12 111.091 1823.81 110.886L1820.82 109.075L1820.68 107.639V107.463V107.548L1820.67 107.463V107.639L1820.53 109.075L1817.54 110.886C1817.21 111.084 1817.39 111.847 1817.39 111.847L1815.06 112.194L1816.36 112.357C1816.36 112.357 1816.69 112.64 1816.69 112.809C1816.69 112.979 1817.29 113.234 1817.29 113.234V115.942H1812.28V113.234C1812.28 113.234 1812.88 112.986 1812.88 112.809C1812.88 112.632 1813.21 112.357 1813.21 112.357L1814.52 112.194L1812.19 111.847C1812.19 111.847 1812.36 111.091 1812.03 110.886L1809.05 109.075L1808.91 107.639V107.463V107.548L1808.89 107.463V107.639L1808.75 109.075L1805.76 110.886C1805.44 111.084 1805.61 111.847 1805.61 111.847L1803.28 112.194L1804.58 112.357C1804.58 112.357 1804.9 112.64 1804.9 112.809C1804.9 112.979 1805.51 113.234 1805.51 113.234V115.942H1802.21V84.5062L1800.17 79.8668L1798.33 84.6123V89.1385H1794.94V86.2459C1794.94 86.2459 1795.46 85.9843 1795.46 85.8216C1795.46 85.659 1795.75 85.369 1795.75 85.369L1796.88 85.2063L1794.86 84.8598C1794.86 84.8598 1795 84.1031 1794.72 83.898L1792.14 82.0875L1792.01 80.6518V80.475V80.5599L1791.99 80.475V80.6518L1791.86 82.0875L1789.28 83.898C1788.99 84.096 1789.14 84.8598 1789.14 84.8598L1787.12 85.2063L1788.25 85.369C1788.25 85.369 1788.54 85.6519 1788.54 85.8216C1788.54 85.9914 1789.06 86.2459 1789.06 86.2459V89.1385H1784.25V86.2459C1784.25 86.2459 1784.77 85.9843 1784.77 85.8216C1784.77 85.659 1785.06 85.369 1785.06 85.369L1786.18 85.2063L1784.17 84.8598C1784.17 84.8598 1784.31 84.1031 1784.03 83.898L1781.43 82.0875L1781.3 80.6518V80.475V80.5599L1781.28 80.475V80.6518L1781.15 82.0875L1778.57 83.898C1778.28 84.096 1778.43 84.8598 1778.43 84.8598L1776.41 85.2063L1777.54 85.369C1777.54 85.369 1777.83 85.6519 1777.83 85.8216C1777.83 85.9914 1778.35 86.2459 1778.35 86.2459V89.1385H1773.54V86.2459C1773.54 86.2459 1774.06 85.9843 1774.06 85.8216C1774.06 85.659 1774.35 85.369 1774.35 85.369L1775.48 85.2063L1773.46 84.8598C1773.46 84.8598 1773.6 84.1031 1773.32 83.898L1770.74 82.0875L1770.61 80.6518V80.475V80.5599L1770.59 80.475V80.6518L1770.46 82.0875L1767.88 83.898C1767.59 84.096 1767.74 84.8598 1767.74 84.8598L1765.72 85.2063L1766.85 85.369C1766.85 85.369 1767.14 85.6519 1767.14 85.8216C1767.14 85.9914 1767.66 86.2459 1767.66 86.2459V89.1385H1762.85V86.2459C1762.85 86.2459 1763.35 85.9843 1763.35 85.8216C1763.35 85.659 1763.64 85.369 1763.64 85.369L1764.77 85.2063L1762.75 84.8598C1762.75 84.8598 1762.89 84.1031 1762.61 83.898L1760.02 82.0875L1759.88 80.6518V80.475V80.5599L1759.87 80.475V80.6518L1759.74 82.0875L1757.14 83.898C1756.87 84.096 1757 84.8598 1757 84.8598L1754.98 85.2063L1756.11 85.369C1756.11 85.369 1756.4 85.6519 1756.4 85.8216C1756.4 85.9914 1756.91 86.2459 1756.91 86.2459V89.1385H1752.09V86.2459C1752.09 86.2459 1752.62 85.9843 1752.62 85.8216C1752.62 85.659 1752.9 85.369 1752.9 85.369L1754.03 85.2063L1752.01 84.8598C1752.01 84.8598 1752.15 84.1031 1751.87 83.898L1749.29 82.0875L1749.18 80.6518V80.475V80.5599L1749.16 80.475V80.6518L1749.03 82.0875L1746.45 83.898C1746.16 84.096 1746.31 84.8598 1746.31 84.8598L1744.29 85.2063L1745.42 85.369C1745.42 85.369 1745.71 85.6519 1745.71 85.8216C1745.71 85.9914 1746.23 86.2459 1746.23 86.2459V89.1385H1741.42V86.2459C1741.42 86.2459 1741.94 85.9843 1741.94 85.8216C1741.94 85.659 1742.23 85.369 1742.23 85.369L1743.35 85.2063L1741.34 84.8598C1741.34 84.8598 1741.48 84.1031 1741.2 83.898L1738.62 82.0875L1738.48 80.6518V80.475V80.5599L1738.47 80.475V80.6518L1738.34 82.0875L1735.74 83.898C1735.47 84.096 1735.6 84.8598 1735.6 84.8598L1733.58 85.2063L1734.71 85.369C1734.71 85.369 1735 85.6519 1735 85.8216C1735 85.9914 1735.51 86.2459 1735.51 86.2459V89.1385H1733.1V84.4991L1731.25 80.772L1729.41 84.6193V88.0069L1728.31 88.6788V89.4709L1729.04 90.263V115.935H1727.14V113.227C1727.14 113.227 1727.65 112.979 1727.65 112.802C1727.65 112.625 1727.93 112.35 1727.93 112.35L1729.03 112.187L1727.04 111.84C1727.04 111.84 1727.18 111.084 1726.91 110.879L1724.37 109.068L1724.25 107.632V107.456V107.54L1724.24 107.456V107.632L1724.12 109.068L1721.58 110.879C1721.3 111.077 1721.44 111.84 1721.44 111.84L1719.44 112.187L1720.55 112.35C1720.55 112.35 1720.83 112.632 1720.83 112.802C1720.83 112.972 1721.34 113.227 1721.34 113.227V115.935H1717.07V113.227C1717.07 113.227 1717.58 112.979 1717.58 112.802C1717.58 112.625 1717.85 112.35 1717.85 112.35L1718.96 112.187L1716.97 111.84C1716.97 111.84 1717.11 111.084 1716.83 110.879L1714.29 109.068L1714.17 107.632V107.456V107.54L1714.15 107.456V107.632L1714.04 109.068L1711.5 110.879C1711.22 111.077 1711.36 111.84 1711.36 111.84L1709.36 112.187L1710.47 112.35C1710.47 112.35 1710.75 112.632 1710.75 112.802C1710.75 112.972 1711.25 113.227 1711.25 113.227V115.935H1708.86V112.442H1706.86C1706.86 112.442 1706.06 104.556 1700.98 103.538L1695.89 102.519L1696.83 101.925C1696.83 101.925 1696.58 101.579 1694.83 101.416C1693.09 101.253 1692.15 101.069 1691.48 100.744C1690.82 100.398 1690 99.4781 1690 99.4781L1691.07 99.1316C1691.07 99.1316 1689.6 98.5375 1689.46 98.1981C1689.33 97.8586 1690.13 97.2645 1689.74 97.017C1689.42 96.819 1688.67 95.1358 1688.39 94.4356V94.1386L1688.33 94.2942L1688.27 94.1386V94.4356C1687.96 95.1358 1687.24 96.819 1686.92 97.017C1686.52 97.2786 1687.33 97.8727 1687.18 98.1981C1687.05 98.5446 1685.57 99.1316 1685.57 99.1316L1686.64 99.4781C1686.64 99.4781 1685.84 100.412 1685.16 100.744C1684.5 101.091 1683.55 101.253 1681.81 101.416C1680.07 101.579 1679.79 101.925 1679.79 101.925L1680.74 102.519L1675.65 103.538C1671.42 104.393 1670.14 110.016 1669.85 111.862H1669.75C1669.75 111.862 1669.88 111.077 1669.62 110.879L1667.16 109.068L1667.04 107.632V107.456V107.54L1667.02 107.456V107.632L1666.91 109.068L1664.44 110.879C1664.19 111.077 1664.31 111.84 1664.31 111.84L1662.39 112.187L1663.46 112.35C1663.46 112.35 1663.72 112.632 1663.72 112.802C1663.72 112.972 1664.2 113.227 1664.2 113.227V115.985H1660.36V113.227C1660.36 113.227 1660.86 112.979 1660.86 112.802C1660.86 112.625 1661.12 112.35 1661.12 112.35L1662.19 112.187L1660.26 111.84C1660.26 111.84 1660.4 111.084 1660.13 110.879L1657.67 109.068L1657.55 107.632V107.456V107.54L1657.54 107.456V107.632L1657.42 109.068L1654.96 110.879C1654.7 111.077 1654.82 111.84 1654.82 111.84L1652.9 112.187L1653.97 112.35C1653.97 112.35 1654.23 112.632 1654.23 112.802C1654.23 112.972 1654.73 113.227 1654.73 113.227V115.985H1653.53V135.999H1648.34V95.4187L1647.2 93.4172H1643.16V76.458L1644.03 75.0011V73.3533L1641.72 72.4409V63.148L1643.74 62.4125V60.7647L1641.72 59.4846V52.7377L1642.87 51.6486V50.1917L1641.43 49.2794L1640.86 47.4547L1642.58 46.7192C1642.58 46.7192 1643.13 41.1039 1638.26 40.8917H1637.97C1633.1 41.1039 1633.65 46.7192 1633.65 46.7192L1635.38 47.4547L1634.8 49.2794L1633.36 50.1917V51.6486L1634.51 52.7377V59.4846L1632.49 60.7647V62.4125L1634.51 63.148V72.4409L1632.2 73.3533V75.0011L1633.07 76.458V93.4172H1632.45V93.2404H1626.61V91.0834L1627.37 89.8033V88.3606L1625.33 87.5543V79.3859L1627.1 78.7494V77.3066L1625.33 76.1822V70.2627L1626.34 69.3009V68.0208L1625.08 67.2146L1624.57 65.6162L1626.08 64.9797C1626.08 64.9797 1626.57 60.0504 1622.29 59.8665H1622.03C1617.74 60.0575 1618.23 64.9797 1618.23 64.9797L1619.75 65.6162L1619.24 67.2146L1617.97 68.0208V69.3009L1618.98 70.2627V76.1822L1617.21 77.3066V78.7494L1618.98 79.3859V87.5543L1616.95 88.3606V89.8033L1617.71 91.0834V93.2404H1604.18V84.4921L1602.45 83.212L1606.77 79.7395L1602.45 79.5627C1602.45 79.5627 1601.86 76.7904 1600.43 75.7366C1598.34 74.1878 1596.4 73.5442 1596.4 73.5442C1596.4 73.5442 1592.08 74.6333 1590.93 76.2812C1589.78 77.929 1589.78 79.3859 1589.78 79.3859H1586.04L1588.63 82.6674H1550.97L1553.56 79.3859H1549.82C1549.82 79.3859 1549.82 77.929 1548.67 76.2812C1547.52 74.6333 1543.2 73.5442 1543.2 73.5442C1543.2 73.5442 1540.32 74.4565 1539.16 75.7366C1538.08 76.946 1537.15 79.5627 1537.15 79.5627L1532.83 79.7395L1537.15 83.212L1535.42 84.4921V93.2404H1525.2V91.0834L1525.96 89.8033V88.3606L1523.92 87.5543V79.3859L1525.69 78.7494V77.3066L1523.92 76.1822V70.2627L1524.93 69.3009V68.0208L1523.67 67.2146L1523.16 65.6162L1524.67 64.9797C1524.67 64.9797 1525.16 60.0504 1520.88 59.8665H1520.62C1516.33 60.0575 1516.82 64.9797 1516.82 64.9797L1518.33 65.6162L1517.83 67.2146L1516.56 68.0208V69.3009L1517.57 70.2627V76.1822L1515.8 77.3066V78.7494L1517.57 79.3859V87.5543L1515.54 88.3606V89.8033L1516.3 91.0834V93.2404H1510.3V76.458L1511.17 75.0011V73.3533L1508.86 72.4409V63.148L1510.88 62.4125V60.7647L1508.86 59.4846V52.7377L1510.01 51.6486V50.1917L1508.57 49.2794L1507.99 47.4547L1509.72 46.7192C1509.72 46.7192 1510.27 41.1039 1505.4 40.8917H1505.11C1500.24 41.1039 1500.79 46.7192 1500.79 46.7192L1502.52 47.4547L1501.94 49.2794L1500.5 50.1917V51.6486L1501.65 52.7377V59.4846L1499.63 60.7647V62.4125L1501.65 63.148V72.4409L1499.34 73.3533V75.0011L1500.21 76.458V93.4172H1496.18L1495.03 95.4187V135.999H1490.72V132.364L1488.98 131.112V112.116C1488.98 112.116 1491.7 111.487 1491.45 110.864C1491.2 110.242 1487.49 109.917 1487.49 109.917V88.7354C1487.49 88.7354 1490.21 87.4836 1490.21 87.0098C1490.21 86.5359 1485.74 85.4326 1485.74 85.4326V66.2881L1488.21 64.0886L1484.25 62.5115V59.6826C1484.25 59.6826 1486.07 57.8014 1485.57 57.4337C1485.07 57.0659 1483.18 55.5029 1481.77 55.3969C1481.77 55.3969 1482.35 53.0984 1479.54 53.0418L1477.58 47.7164V45.8776H1476.9V47.7164L1474.94 53.0418C1472.13 53.0913 1472.71 55.3969 1472.71 55.3969C1471.31 55.5029 1469.4 57.0659 1468.92 57.4337C1468.41 57.8014 1470.24 59.6826 1470.24 59.6826V62.5115L1466.27 64.0886L1468.74 66.2881V85.4326C1468.74 85.4326 1464.28 86.5359 1464.28 87.0098C1464.28 87.4836 1467 88.7354 1467 88.7354V109.917C1467 109.917 1463.28 110.235 1463.04 110.864C1462.8 111.494 1465.51 112.116 1465.51 112.116V112.901C1465.23 112.392 1464.34 112.024 1463.28 112.024C1462 112.024 1460.97 112.555 1460.97 113.234C1460.97 112.569 1459.93 112.024 1458.66 112.024C1457.39 112.024 1456.35 112.555 1456.35 113.234C1456.35 112.569 1455.32 112.024 1454.04 112.024C1452.77 112.024 1451.73 112.555 1451.73 113.234C1451.73 112.569 1450.7 112.024 1449.42 112.024C1448.15 112.024 1447.11 112.555 1447.11 113.234C1447.11 112.569 1446.08 112.024 1444.8 112.024C1443.53 112.024 1442.49 112.555 1442.49 113.234C1442.49 112.76 1441.98 112.357 1441.22 112.159V111.034C1441.22 111.034 1442.95 110.49 1441.72 109.542C1441.72 109.542 1445.8 100.588 1432.93 97.6181C1432.93 97.6181 1433.05 96.3663 1429.96 96.041C1426.86 95.7298 1426.61 94.6336 1426 94.1598C1425.39 93.686 1425.63 93.0565 1425.63 92.8231C1425.63 92.5898 1425.75 92.1159 1425.5 91.8047C1425.25 91.4865 1425.25 90.7015 1425.38 90.3125C1425.42 90.1852 1425.3 89.7538 1425.13 89.2587V87.0946H1424.26V89.2587C1424.09 89.7538 1423.97 90.1852 1424.01 90.3125C1424.15 90.7015 1424.15 91.4865 1423.9 91.8047C1423.65 92.123 1423.78 92.5898 1423.78 92.8231C1423.78 93.0565 1424.03 93.686 1423.41 94.1598C1422.79 94.6336 1422.54 95.7369 1419.45 96.041C1416.35 96.3593 1416.48 97.6181 1416.48 97.6181C1403.59 100.603 1407.69 109.542 1407.69 109.542C1406.44 110.49 1408.19 111.034 1408.19 111.034V112.038H1407.86C1406.58 112.024 1405.54 112.562 1405.54 113.234C1405.54 112.569 1404.51 112.024 1403.24 112.024C1401.96 112.024 1400.93 112.555 1400.93 113.234C1400.93 112.569 1399.89 112.024 1398.62 112.024C1398.42 112.024 1398.24 112.038 1398.06 112.06V97.4837L1398.71 96.7482V96.0127L1397.64 95.3267V92.3422C1397.64 92.3422 1398.14 92.031 1398.06 91.7623C1397.99 91.5006 1397.49 91.345 1397.49 91.345V90.56C1397.49 90.56 1397.56 89.6689 1398.48 89.3507C1399.39 89.0324 1400.22 88.8768 1399.88 88.5657C1399.55 88.2474 1398.14 87.5685 1398.14 87.5685V85.8428C1398.14 85.8428 1400.21 85.171 1399.96 84.9517C1399.71 84.7325 1397.56 83.8485 1397.31 83.6999C1397.1 83.5726 1395.67 79.9092 1395.27 78.8908H1395.17C1394.78 79.9092 1393.34 83.5656 1393.13 83.6999C1392.88 83.8555 1390.74 84.7396 1390.49 84.9517C1390.24 85.1639 1392.31 85.8428 1392.31 85.8428V87.5685C1392.31 87.5685 1390.91 88.2403 1390.57 88.5657C1390.24 88.8839 1391.07 89.0395 1391.97 89.3507C1392.87 89.6689 1392.96 90.56 1392.96 90.56V91.345C1392.96 91.345 1392.46 91.5006 1392.38 91.7623C1392.3 92.024 1392.8 92.3422 1392.8 92.3422V92.5756H1383.1C1383.1 92.5756 1382.23 89.8316 1378.38 89.1173C1378.38 89.1173 1375.91 86.9956 1373.3 86.2884C1370.69 85.5812 1368.59 83.1483 1368.59 83.1483C1368.59 83.1483 1369.09 82.8301 1369.09 81.8965C1369.09 80.963 1368.35 80.7225 1368.35 80.2487C1368.35 79.7749 1368.1 78.4453 1368.1 78.4453L1367.23 73.2613V71.7832H1366.98V73.2613L1366.11 78.4453C1366.11 78.4453 1365.86 79.7819 1365.86 80.2487C1365.86 80.7155 1365.12 80.9559 1365.12 81.8965C1365.12 82.8371 1365.62 83.1483 1365.62 83.1483C1365.62 83.1483 1363.51 85.5741 1360.91 86.2884C1358.31 87.0027 1355.83 89.1173 1355.83 89.1173C1351.98 89.8245 1351.11 92.5756 1351.11 92.5756H1342.09V92.3422C1342.09 92.3422 1342.59 92.031 1342.51 91.7623C1342.43 91.5006 1341.93 91.345 1341.93 91.345V90.56C1341.93 90.56 1342.01 89.6689 1342.92 89.3507C1343.83 89.0324 1344.67 88.8768 1344.32 88.5657C1343.99 88.2474 1342.58 87.5685 1342.58 87.5685V85.8428C1342.58 85.8428 1344.65 85.171 1344.4 84.9517C1344.15 84.7325 1342.01 83.8485 1341.76 83.6999C1341.55 83.5726 1340.11 79.9092 1339.72 78.8908H1339.62C1339.23 79.9092 1337.79 83.5656 1337.58 83.6999C1337.33 83.8555 1335.19 84.7396 1334.94 84.9517C1334.69 85.1639 1336.76 85.8428 1336.76 85.8428V87.5685C1336.76 87.5685 1335.36 88.2403 1335.01 88.5657C1334.69 88.8839 1335.51 89.0395 1336.41 89.3507C1337.32 89.6689 1337.41 90.56 1337.41 90.56V91.345C1337.41 91.345 1336.91 91.5006 1336.83 91.7623C1336.75 92.024 1337.23 92.3422 1337.23 92.3422V95.3267L1336.16 95.9986V96.7341L1336.83 97.4696V112.116L1337.01 112.279C1336.5 112.505 1336.16 112.838 1336.16 113.212C1336.16 112.548 1335.12 112.003 1333.84 112.003C1332.56 112.003 1331.53 112.533 1331.53 113.212C1331.53 112.548 1330.5 112.003 1329.22 112.003C1327.95 112.003 1326.91 112.533 1326.91 113.212C1326.91 112.548 1325.88 112.003 1324.6 112.003H1324.49V111.006C1324.49 111.006 1326.23 110.461 1324.99 109.514C1324.99 109.514 1329.08 100.56 1316.19 97.5898C1316.19 97.5898 1316.31 96.338 1313.22 96.0127C1310.12 95.7015 1309.87 94.6053 1309.26 94.1315C1308.65 93.6577 1308.88 93.0282 1308.88 92.7948C1308.88 92.5615 1308.99 92.0876 1308.76 91.7765C1308.51 91.4582 1308.51 90.6732 1308.63 90.2842C1308.67 90.1569 1308.55 89.7255 1308.38 89.2304V87.0663H1307.51V89.2304C1307.34 89.7255 1307.22 90.1569 1307.26 90.2842C1307.38 90.6732 1307.38 91.4582 1307.13 91.7765C1306.88 92.0947 1307.01 92.5615 1307.01 92.7948C1307.01 93.0282 1307.26 93.6577 1306.64 94.1315C1306.03 94.6053 1305.77 95.7086 1302.68 96.0127C1299.58 96.331 1299.71 97.5898 1299.71 97.5898C1286.82 100.574 1290.92 109.514 1290.92 109.514C1289.67 110.447 1291.42 111.006 1291.42 111.006V112.081C1290.55 112.258 1289.92 112.682 1289.92 113.205C1289.92 112.541 1288.89 111.996 1287.62 111.996C1286.34 111.996 1285.31 112.526 1285.31 113.205C1285.31 112.541 1284.27 111.996 1283 111.996C1281.73 111.996 1280.69 112.526 1280.69 113.205C1280.69 112.541 1279.65 111.996 1278.38 111.996C1277.11 111.996 1276.07 112.526 1276.07 113.205C1276.07 112.541 1275.04 111.996 1273.76 111.996C1272.49 111.996 1271.45 112.526 1271.45 113.205C1271.45 112.541 1270.42 111.996 1269.14 111.996C1268.4 111.996 1267.73 112.187 1267.31 112.47V112.102C1267.31 112.102 1270.03 111.473 1269.78 110.85C1269.53 110.228 1265.82 109.903 1265.82 109.903V88.7212C1265.82 88.7212 1268.54 87.4694 1268.54 86.9956C1268.54 86.5218 1264.08 85.4185 1264.08 85.4185V66.274L1266.55 64.0745L1262.58 62.4974V59.6685C1262.58 59.6685 1264.41 57.7873 1263.91 57.4195C1263.4 57.0518 1261.51 55.4888 1260.11 55.3827C1260.11 55.3827 1260.69 53.0842 1257.88 53.0276L1255.92 47.7022V45.8635H1255.24V47.7022L1253.28 53.0276C1250.46 53.0772 1251.05 55.3827 1251.05 55.3827C1249.65 55.4888 1247.75 57.0518 1247.25 57.4195C1246.75 57.7873 1248.57 59.6685 1248.57 59.6685V62.4974L1244.61 64.0745L1247.08 66.274V85.4185C1247.08 85.4185 1242.61 86.5218 1242.61 86.9956C1242.61 87.4694 1245.33 88.7212 1245.33 88.7212V109.903C1245.33 109.903 1241.61 110.214 1241.37 110.85C1241.12 111.48 1243.84 112.102 1243.84 112.102V131.098L1242.1 132.35V135.985H1236.21V115.879H1232.56L1232.45 113.715L1228.72 113.347V92.8231L1230.72 91.5572V90.1003L1227.85 89.9235V69.9445L1229 68.6785V67.4126H1226.42L1224.71 45.4321L1226.71 44.5197V42.7093L1224.71 42.1647V36.5281L1227.58 35.6158L1225 34.8944C1225 34.8944 1223.56 29.272 1218.69 29.272L1217.54 24.0598V21.4572H1216.96V24.0598L1215.81 29.272C1210.93 29.272 1209.51 34.8944 1209.51 34.8944L1206.93 35.6158L1209.8 36.5281V42.1647L1207.8 42.7093V44.5197L1209.8 45.4321L1208.07 67.4126H1205.49V68.6785L1206.64 69.9445V89.9235L1203.77 90.1003V91.5572L1205.77 92.8231V113.347L1202.04 113.715L1201.93 115.879H1189.06V100.758L1190.59 99.7893V98.6789L1188.4 98.5375V83.2473L1189.27 82.2784V81.3095H1187.29L1185.97 64.4918L1187.51 63.7916V62.4054L1185.97 61.9882V57.6812L1188.17 56.981L1186.19 56.4223C1186.19 56.4223 1185.09 52.1153 1181.36 52.1153L1180.49 48.1266V46.1393H1180.04V48.1266L1179.17 52.1153C1175.44 52.1153 1174.34 56.4223 1174.34 56.4223L1172.36 56.981L1174.55 57.6812V61.9882L1173.02 62.4054V63.7916L1174.55 64.4918L1173.25 81.3095H1171.27V82.2784L1172.15 83.2473V98.5375L1169.95 98.6789V99.7893L1171.48 100.758V113.757H1149.6V73.6149L1150.93 73.0704C1150.93 73.0704 1148.93 70.0364 1148.93 69.8596C1148.93 69.6828 1147.98 62.8934 1147.98 62.8934H1140.9L1135.45 66.281V69.5484L1128 69.0604L1123.88 69.117L1123.79 61.0051L1125.61 60.5808L1126.19 59.5483L1124.19 59.0603C1124.19 59.0603 1124.48 51.8607 1116.26 49.8593L1117.01 49.6259L1111.95 47.872C1111.66 47.8154 1110.42 47.3274 1110.42 47.3274L1109.75 41.5706L1108.71 47.4406C1108.71 47.4406 1107.27 47.9286 1106.51 48.2327C1105.75 48.5368 1103.56 49.5623 1103.56 49.5623L1103.94 49.9866L1104.81 50.22C1104.81 50.22 1102.98 50.3402 1102.03 51.005C1101.08 51.6698 1100.59 52.0941 1100.59 52.0941L1100.79 49.1238C1100.79 49.1238 1113.22 31.0754 1078.43 17.7584C1078.43 17.7584 1079.67 17.037 1078.81 16.4925C1077.95 15.9479 1075.65 15.7004 1073.64 14.8588C1071.64 14.003 1068.96 11.7116 1067.43 11.2236C1065.9 10.7357 1065.32 10.6225 1065.32 10.6225C1065.32 10.6225 1066.08 10.3891 1065.8 10.1345C1065.52 9.88699 1064.47 9.53338 1064.47 9.53338C1064.47 9.53338 1064.37 8.62106 1063.8 8.38768C1063.23 8.15429 1061.9 7.89969 1061.9 7.89969V7.35513C1061.9 7.35513 1063.23 6.81057 1063.23 6.38623C1063.23 5.9619 1062.19 5.41734 1062.19 5.41734V4.75254C1062.19 4.75254 1063.81 4.38479 1063.81 3.54319C1063.81 2.7016 1062.08 1.36494 1062.08 1.36494L1061.9 0.0141445C1061.77 0.0141445 1061.65 0.0141445 1061.51 0L1061.33 1.37201C1061.33 1.37201 1059.62 2.70867 1059.62 3.55026C1059.62 4.39186 1061.25 4.75962 1061.25 4.75962V5.42441C1061.25 5.42441 1060.2 5.96897 1060.2 6.3933C1060.2 6.81764 1061.54 7.35513 1061.54 7.3622V7.90676C1061.54 7.90676 1060.2 8.15429 1059.63 8.39475C1059.06 8.6352 1058.97 9.54045 1058.97 9.54045C1058.97 9.54045 1057.92 9.90821 1057.63 10.1416C1057.34 10.375 1058.11 10.6296 1058.11 10.6296C1058.11 10.6296 1057.54 10.7498 1056 11.2307C1054.47 11.7116 1051.81 14.0101 1049.79 14.8658C1047.79 15.7216 1045.48 15.955 1044.62 16.4995C1043.76 17.0441 1045.01 17.7655 1045.01 17.7655C1010.21 31.0896 1022.63 49.1308 1022.63 49.1308L1022.83 52.1012C1022.83 52.1012 1022.34 51.6768 1021.39 51.0121C1020.44 50.3473 1018.62 50.227 1018.62 50.227L1019.49 49.9937L1019.87 49.5693C1019.87 49.5693 1017.67 48.5368 1016.9 48.2397C1016.14 47.9286 1014.7 47.4476 1014.7 47.4476L1013.66 41.5777L1012.99 47.3345C1012.99 47.3345 1011.75 47.8225 1011.46 47.8791C1011.17 47.9356 1006.4 49.633 1006.4 49.633L1007.15 49.8664C998.94 51.8678 999.221 59.0673 999.221 59.0673L997.22 59.5553L997.799 60.5879L999.62 61.0122L999.526 69.1241L996.79 69.0887V63.5936C996.79 63.5936 997.236 63.3955 997.173 63.2753C997.111 63.1551 996.861 62.8227 996.861 62.8227L997.173 61.9669L997.752 61.6841L997.244 61.4507C997.244 60.9273 996.157 60.7293 996.157 60.7293L995.774 57.66L995.462 60.7293C994.508 60.8142 994.508 61.4507 994.508 61.4507C994.508 61.4507 993.867 61.5709 993.734 61.6841C993.602 61.7972 994.375 61.8821 994.375 61.8821C994.375 61.8821 994.375 62.0448 994.508 62.2498C994.641 62.4549 994.688 62.9359 994.688 62.9359C994.688 62.9359 994.305 63.1339 994.375 63.2541C994.446 63.3743 994.688 63.4521 994.688 63.4521V69.0887L987.958 69.5272V66.2598L983.98 63.7845V61.2739C983.98 61.2739 984.426 61.0759 984.363 60.9556C984.301 60.8354 984.051 60.503 984.051 60.503L984.363 59.6473L984.942 59.3644L984.434 59.131C984.434 58.6076 983.347 58.4096 983.347 58.4096L982.964 55.3403L982.651 58.4096C981.698 58.4945 981.698 59.131 981.698 59.131C981.698 59.131 981.057 59.2512 980.924 59.3644C980.791 59.4775 981.565 59.5624 981.565 59.5624C981.565 59.5624 981.565 59.7251 981.698 59.9302C981.831 60.1352 981.878 60.6162 981.878 60.6162C981.878 60.6162 981.495 60.8142 981.565 60.9344C981.635 61.0546 981.878 61.1324 981.878 61.1324V62.851H979.009V57.0588C979.009 57.0588 979.455 56.8608 979.392 56.7406C979.33 56.6203 979.08 56.288 979.08 56.288L979.392 55.4322L979.971 55.1493L979.463 54.9159C979.463 54.3926 978.376 54.1946 978.376 54.1946L977.993 51.1252L977.681 54.1946C976.727 54.2794 976.727 54.9159 976.727 54.9159C976.727 54.9159 976.086 55.0362 975.969 55.1493C975.836 55.2695 976.61 55.3473 976.61 55.3473C976.61 55.3473 976.61 55.51 976.743 55.7151C976.876 55.9202 976.938 56.4011 976.938 56.4011C976.938 56.4011 976.555 56.5991 976.626 56.7194C976.696 56.8396 976.938 56.9174 976.938 56.9174V62.6742L976.555 62.4974C976.555 61.974 975.469 61.776 975.469 61.776L975.086 58.7067L974.773 61.776C973.82 61.8609 973.82 62.4974 973.82 62.4974C973.82 62.4974 973.179 62.6176 973.061 62.7308C972.929 62.851 973.702 62.9288 973.702 62.9288C973.702 62.9288 973.702 63.0914 973.835 63.2965C973.968 63.5016 974.031 63.9825 974.031 63.9825C974.031 63.9825 973.648 64.1806 973.718 64.3008C973.788 64.421 974.031 64.4988 974.031 64.4988V70.68C973.445 71.6276 972.538 72.9855 972.538 72.9855L973.874 73.5301V113.672H952.857V100.673L954.405 99.7044V98.5941L952.209 98.4526V83.1624L953.084 82.1936V81.2247H951.107L949.786 64.4069L951.318 63.7067V62.3206L949.786 61.9033V57.5963L951.982 56.8962L950.005 56.3375C950.005 56.3375 948.903 52.0305 945.174 52.0305L944.299 48.0417V46.0544H943.869V48.0417L942.994 52.0305C939.266 52.0305 938.164 56.3375 938.164 56.3375L936.186 56.8962L938.382 57.5963V61.9033L936.851 62.3206V63.7067L938.382 64.4069L937.062 81.2247H935.084V82.1936L935.96 83.1624V98.4526L933.763 98.5941V99.7044L935.295 100.673V115.794H923.493L923.376 113.63L919.648 113.262V92.7383L921.649 91.4723V90.0154L918.78 89.8387V69.8596L919.929 68.5936V67.3277H917.35L915.638 45.3472L917.639 44.4349V42.6244L915.638 42.0798V36.4432L918.507 35.5309L915.928 34.8096C915.928 34.8096 914.489 29.1871 909.62 29.1871L908.471 23.9749V21.3723H907.893V23.9749L906.744 29.1871C901.859 29.1871 900.437 34.8096 900.437 34.8096L897.857 35.5309L900.726 36.4432V42.0798L898.725 42.6244V44.4349L900.726 45.3472L898.998 67.3277H896.419V68.5936L897.568 69.8596V89.8387L894.7 90.0154V91.4723L896.701 92.7383V113.262L892.972 113.63L892.855 115.794H890.424V135.9H885.516C887.306 143.842 888.658 151.7 888.83 159.762L889.01 169.507H884.25C885.758 157.308 883.664 144.96 883.492 132.753H882.835V109.754L884 107.915H882.835V82.9079L886.907 77.7593V75.7366H880.522V69.2938L878.193 69.1028V65.0646L871.807 64.3291V53.1125H852.94V51.2737H848.008C848.008 51.2737 840.168 48.5156 837.55 48.1478C837.55 48.1478 837.042 47.0092 832.618 46.7121V46.6626C832.478 46.6626 832.329 46.6768 832.188 46.6838C832.048 46.6838 831.899 46.6697 831.759 46.6626V46.7121C827.335 46.995 826.827 48.1478 826.827 48.1478C824.208 48.5156 816.369 51.2737 816.369 51.2737H811.437V53.1125H792.57V64.3291L786.184 65.0646V69.1028L783.855 69.2938V75.7366H777.47V77.7593L781.542 82.9079V107.915H780.377L781.542 109.754V132.739H781.096C781.354 133.177 781.518 133.665 781.503 134.217C781.464 144.521 780.557 154.833 778.548 165.038H774.789V161.035H758.657L761.009 157.124L761.377 154.825L752.138 146.841L744.338 150.915V144.486C744.338 144.486 746.511 142.428 745.792 140.129C745.073 137.831 743.619 136.459 742.165 133.241C740.712 130.03 745.073 128.184 744.338 121.77C743.619 115.341 739.258 113.043 739.258 112.357C739.258 111.671 746.511 112.357 743.971 110.299C741.431 108.226 739.977 101.345 739.977 101.345V97.901C739.977 97.901 742.15 96.2885 741.063 95.6025C739.977 94.9165 739.977 93.7637 740.344 92.618C740.712 91.4723 741.063 91.6916 739.977 88.9475C738.89 86.1894 737.804 81.1469 737.804 81.1469C737.804 81.1469 740.344 80.2346 739.977 78.8484C739.609 77.4764 738.523 75.6376 738.523 75.6376C738.523 75.6376 741.431 75.1779 741.063 74.4919C740.696 73.8059 739.258 72.1934 738.156 71.9671C737.069 71.7408 737.069 68.7563 737.069 68.7563C737.069 68.7563 738.891 68.0703 739.242 66.6841C739.61 65.3121 739.961 63.0136 739.961 63.0136C739.961 63.0136 742.134 64.1593 743.22 62.0872C744.307 60.0292 742.853 57.957 742.853 54.2865C742.853 50.616 743.22 48.7772 743.22 48.7772L746.847 47.4052L739.961 39.1378C739.961 39.1378 734.881 36.8393 732.349 37.9921C729.816 39.1448 729.808 36.3796 728.355 34.3216C726.901 32.2636 720.015 34.7813 719.288 32.9496V27.9071C719.288 27.9071 718.976 29.2791 718.569 30.736C718.147 29.2791 717.85 27.9071 717.85 27.9071V32.9496C717.131 34.7883 710.238 32.2636 708.784 34.3216C707.33 36.3796 707.33 39.1378 704.79 37.9921C702.25 36.8464 697.177 39.1378 697.177 39.1378L690.291 47.4052L693.918 48.7772C693.918 48.7772 694.285 50.616 694.285 54.2865C694.285 57.957 692.832 60.0292 693.918 62.0872C695.004 64.1593 697.177 63.0136 697.177 63.0136C697.177 63.0136 697.545 65.3121 697.896 66.6841C698.264 68.0562 700.069 68.7563 700.069 68.7563C700.069 68.7563 700.069 71.7408 698.983 71.9671C697.896 72.1934 696.443 73.8059 696.075 74.4919C695.708 75.1779 698.615 75.6376 698.615 75.6376C698.615 75.6376 697.529 77.4764 697.162 78.8484C696.794 80.2204 699.334 81.1469 699.334 81.1469C699.334 81.1469 698.248 86.2035 697.162 88.9475C696.075 91.7057 696.443 91.4723 696.794 92.618C697.162 93.7637 697.162 94.9165 696.075 95.6025C694.989 96.2885 697.162 97.901 697.162 97.901V101.345C697.162 101.345 695.708 108.234 693.168 110.299C690.628 112.364 697.881 111.671 697.881 112.357C697.881 113.043 693.535 115.341 692.8 121.77C692.066 128.198 696.427 130.037 694.973 133.241C693.519 136.445 692.066 137.838 691.347 140.129C690.628 142.421 692.8 144.486 692.8 144.486V150.915L684.648 146.664L675.762 154.811L676.129 157.11L678.122 161.021H670.306C668.97 147.951 667.633 134.875 667.36 121.777C667.141 121.777 666.914 121.763 666.695 121.756V91.9957L670.853 87.2502V85.4044H665.851V78.0139L667.93 75.9063L665.015 73.523V70.885H611.672V61.578L613.227 60.1918L611.359 58.4167V49.1096C611.359 49.1096 612.93 47.9286 611.672 47.1294C610.413 46.3302 606.044 41.3867 606.044 41.3867L604.176 38.0204L602.918 40.9907C602.918 40.9907 598.236 46.3302 597.916 47.3274C597.595 48.3246 597.603 49.5057 597.603 49.5057L598.846 50.6867V53.254L597.603 55.0432H542.705L541.446 53.254V50.6867L542.705 49.5057C542.705 49.5057 542.704 48.3246 542.392 47.3274C542.079 46.3302 537.39 40.9907 537.39 40.9907L536.131 38.0204L534.263 41.3867C534.263 41.3867 529.894 46.3373 528.636 47.1294C527.378 47.9215 528.949 49.1096 528.949 49.1096V58.4167L527.081 60.1918L528.652 61.578V70.885H475.308V73.523L472.393 75.9063L474.472 78.0139V85.4044H469.47V87.2502L473.628 91.9957V106.253H473.261L474.113 169.451H470.642C471.424 158.248 472.112 147.06 472.385 135.844H472.112C471.643 134.472 470.932 133.524 470.658 131.063C470.306 127.916 468.173 130.61 468.173 126.791C468.173 122.972 471.01 122.739 468.173 120.504C465.335 118.255 463.921 119.379 464.272 116.451C464.624 113.524 464.624 111.954 462.858 111.501C461.076 111.048 461.076 108.573 461.076 107.675C461.076 106.777 456.472 104.747 456.472 104.747C456.472 104.747 457.887 103.849 457.887 102.045C457.887 100.242 457.183 96.6563 456.105 96.6563C455.026 96.6563 453.971 94.8529 453.971 94.8529C453.971 94.8529 450.774 89.4497 450.774 88.3393C450.774 87.229 455.026 87.8867 450.774 86.3167C446.507 84.7396 449.711 79.1313 447.226 79.1313C444.741 79.1313 446.523 77.5542 445.092 75.5315L443.678 73.5089L441.544 68.5583C441.544 68.5583 443.857 66.9246 442.263 64.909C440.669 62.8863 440.669 62.554 438.808 61.7124C436.948 60.8708 437.745 60.1989 436.948 58.3389C436.151 56.4789 436.409 55.9838 435.612 55.3049C434.814 54.626 434.814 51.0899 434.814 51.0899C434.814 51.0899 435.877 48.0559 433.751 47.5467C431.618 47.0375 434.549 45.0148 432.954 43.6711C431.36 42.3203 429.226 40.9695 430.297 39.7955C431.36 38.6144 435.088 37.0939 432.157 37.0939C429.226 37.0939 428.429 36.0896 428.429 36.0896C428.429 36.0896 427.632 32.214 427.632 30.8703C427.632 29.5266 426.561 22.2705 426.561 22.2705L428.421 20.757C428.421 20.757 429.218 17.723 427.085 18.2322C424.951 18.7414 423.888 19.2365 423.888 19.2365C423.888 19.2365 419.894 15.863 420.691 17.3765C421.488 18.89 420.691 25.1347 420.691 25.1347H420.144C419.519 24.2224 418.143 24.3992 418.143 24.3992C418.143 24.3992 418.612 24.279 418.612 23.8759C418.612 23.4728 417.791 23.3879 417.791 23.3879C417.791 23.3879 420.511 22.9706 420.511 22.0371C420.511 21.1036 418.143 20.46 418.143 20.46C418.143 20.46 418.683 20.269 418.683 20.0427C418.683 19.8164 418.214 19.7103 418.214 19.7103C418.214 19.7103 418.987 19.2223 418.87 18.9253C418.753 18.6283 418.284 18.5081 418.096 18.0979C417.963 17.8008 417.713 17.5887 417.596 17.4826V17.426L417.557 17.4614L417.518 17.426V17.4826C417.385 17.5745 417.135 17.8008 417.018 18.0979C416.838 18.5151 416.361 18.6212 416.244 18.9253C416.127 19.2223 416.9 19.7103 416.9 19.7103C416.9 19.7103 416.432 19.8164 416.432 20.0427C416.432 20.269 416.971 20.46 416.971 20.46C416.971 20.46 414.603 21.0965 414.603 22.0371C414.603 22.9777 417.323 23.3879 417.323 23.3879C417.323 23.3879 416.502 23.4586 416.502 23.8759C416.502 24.2931 416.971 24.3992 416.971 24.3992C416.971 24.3992 415.587 24.2224 414.97 25.1347H413.188C412.563 24.2224 411.171 24.3992 411.171 24.3992C411.171 24.3992 411.64 24.279 411.64 23.8759C411.64 23.4728 410.82 23.3879 410.82 23.3879C410.82 23.3879 413.54 22.9706 413.54 22.0371C413.54 21.1036 411.171 20.46 411.171 20.46C411.171 20.46 411.711 20.269 411.711 20.0427C411.711 19.8164 411.242 19.7103 411.242 19.7103C411.242 19.7103 412.016 19.2223 411.898 18.9253C411.781 18.6283 411.312 18.5081 411.125 18.0979C411.015 17.8645 410.843 17.6523 410.624 17.4826V17.426L410.585 17.4614L410.546 17.426V17.4826C410.413 17.5745 410.163 17.8008 410.046 18.0979C409.866 18.5151 409.389 18.6212 409.272 18.9253C409.155 19.2223 409.929 19.7103 409.929 19.7103C409.929 19.7103 409.46 19.8164 409.46 20.0427C409.46 20.269 409.999 20.46 409.999 20.46C409.999 20.46 407.631 21.0965 407.631 22.0371C407.631 22.9777 410.351 23.3879 410.351 23.3879C410.351 23.3879 409.53 23.4586 409.53 23.8759C409.53 24.2931 409.999 24.3992 409.999 24.3992C409.999 24.3992 408.616 24.2224 407.998 25.1347H406.216C405.591 24.2224 404.2 24.3992 404.2 24.3992C404.2 24.3992 404.669 24.279 404.669 23.8759C404.669 23.4728 403.848 23.3879 403.848 23.3879C403.848 23.3879 406.568 22.9706 406.568 22.0371C406.568 21.1036 404.2 20.46 404.2 20.46C404.2 20.46 404.739 20.269 404.739 20.0427C404.739 19.8164 404.27 19.7103 404.27 19.7103C404.27 19.7103 405.044 19.2223 404.927 18.9253C404.809 18.6283 404.34 18.5081 404.153 18.0979C404.043 17.8645 403.871 17.6523 403.653 17.4826V17.426L403.613 17.4614L403.574 17.426V17.4826C403.442 17.5745 403.191 17.8008 403.074 18.0979C402.894 18.5151 402.418 18.6212 402.3 18.9253C402.183 19.2223 402.957 19.7103 402.957 19.7103C402.957 19.7103 402.488 19.8164 402.488 20.0427C402.488 20.269 403.027 20.46 403.027 20.46C403.027 20.46 400.659 21.0965 400.659 22.0371C400.659 22.9777 403.379 23.3879 403.379 23.3879C403.379 23.3879 402.558 23.4586 402.558 23.8759C402.558 24.2931 403.027 24.3992 403.027 24.3992C403.027 24.3992 401.644 24.2224 401.011 25.1347H399.229C398.604 24.2224 397.228 24.3992 397.228 24.3992C397.228 24.3992 397.697 24.279 397.697 23.8759C397.697 23.4728 396.876 23.3879 396.876 23.3879C396.876 23.3879 399.596 22.9706 399.596 22.0371C399.596 21.1036 397.228 20.46 397.228 20.46C397.228 20.46 397.767 20.269 397.767 20.0427C397.767 19.8164 397.298 19.7103 397.298 19.7103C397.298 19.7103 398.072 19.2223 397.955 18.9253C397.838 18.6283 397.369 18.5081 397.181 18.0979C397.072 17.8645 396.9 17.6523 396.681 17.4826V17.426L396.642 17.4614L396.587 17.426V17.4826C396.454 17.5745 396.204 17.8008 396.087 18.0979C395.907 18.5151 395.43 18.6212 395.313 18.9253C395.196 19.2223 395.97 19.7103 395.97 19.7103C395.97 19.7103 395.501 19.8164 395.501 20.0427C395.501 20.269 396.04 20.46 396.04 20.46C396.04 20.46 393.672 21.0965 393.672 22.0371C393.672 22.9777 396.392 23.3879 396.392 23.3879C396.392 23.3879 395.571 23.4586 395.571 23.8759C395.571 24.2931 396.04 24.3992 396.04 24.3992C396.04 24.3992 394.657 24.2224 394.023 25.1347H392.241C391.616 24.2224 390.241 24.3992 390.241 24.3992C390.241 24.3992 390.71 24.279 390.71 23.8759C390.71 23.4728 389.889 23.3879 389.889 23.3879C389.889 23.3879 392.609 22.9706 392.609 22.0371C392.609 21.1036 390.241 20.46 390.241 20.46C390.241 20.46 390.78 20.269 390.78 20.0427C390.78 19.8164 390.311 19.7103 390.311 19.7103C390.311 19.7103 391.085 19.2223 390.967 18.9253C390.85 18.6283 390.381 18.5081 390.194 18.0979C390.084 17.8645 389.912 17.6523 389.693 17.4826V17.426L389.654 17.4614L389.615 17.426V17.4826C389.482 17.5745 389.232 17.8008 389.115 18.0979C388.935 18.5151 388.459 18.6212 388.341 18.9253C388.224 19.2223 388.998 19.7103 388.998 19.7103C388.998 19.7103 388.529 19.8164 388.529 20.0427C388.529 20.269 389.068 20.46 389.068 20.46C389.068 20.46 386.7 21.0965 386.7 22.0371C386.7 22.9777 389.42 23.3879 389.42 23.3879C389.42 23.3879 388.599 23.4586 388.599 23.8759C388.599 24.2931 389.068 24.3992 389.068 24.3992C389.068 24.3992 387.685 24.2224 387.052 25.1347H385.27C384.644 24.2224 383.253 24.3992 383.253 24.3992C383.253 24.3992 383.722 24.279 383.722 23.8759C383.722 23.4728 382.901 23.3879 382.901 23.3879C382.901 23.3879 385.621 22.9706 385.621 22.0371C385.621 21.1036 383.253 20.46 383.253 20.46C383.253 20.46 383.793 20.269 383.793 20.0427C383.793 19.8164 383.324 19.7103 383.324 19.7103C383.324 19.7103 384.097 19.2223 383.98 18.9253C383.863 18.6283 383.394 18.5081 383.206 18.0979C383.097 17.8645 382.925 17.6523 382.706 17.4826V17.426L382.667 17.4614L382.628 17.426V17.4826C382.495 17.5745 382.245 17.8008 382.128 18.0979C381.948 18.5151 381.471 18.6212 381.354 18.9253C381.237 19.2223 382.01 19.7103 382.01 19.7103C382.01 19.7103 381.542 19.8164 381.542 20.0427C381.542 20.269 382.081 20.46 382.081 20.46C382.081 20.46 379.713 21.0965 379.713 22.0371C379.713 22.9777 382.433 23.3879 382.433 23.3879C382.433 23.3879 381.612 23.4586 381.612 23.8759C381.612 24.2931 382.081 24.3992 382.081 24.3992C382.081 24.3992 380.697 24.2224 380.064 25.1347H378.282C377.657 24.2224 376.266 24.3992 376.266 24.3992C376.266 24.3992 376.735 24.279 376.735 23.8759C376.735 23.4728 375.914 23.3879 375.914 23.3879C375.914 23.3879 378.634 22.9706 378.634 22.0371C378.634 21.1036 376.266 20.46 376.266 20.46C376.266 20.46 376.805 20.269 376.805 20.0427C376.805 19.8164 376.336 19.7103 376.336 19.7103C376.336 19.7103 377.11 19.2223 376.993 18.9253C376.875 18.6283 376.407 18.5081 376.219 18.0979C376.109 17.8645 375.938 17.6523 375.719 17.4826V17.426L375.68 17.4614L375.641 17.426V17.4826C375.508 17.5745 375.258 17.8008 375.14 18.0979C374.961 18.5151 374.484 18.6212 374.367 18.9253C374.249 19.2223 375.023 19.7103 375.023 19.7103C375.023 19.7103 374.554 19.8164 374.554 20.0427C374.554 20.269 375.093 20.46 375.093 20.46C375.093 20.46 372.725 21.0965 372.725 22.0371C372.725 22.9777 375.445 23.3879 375.445 23.3879C375.445 23.3879 374.625 23.4586 374.625 23.8759C374.625 24.2931 375.093 24.3992 375.093 24.3992C375.093 24.3992 373.71 24.2224 373.093 25.1347H371.311C370.685 24.2224 369.31 24.3992 369.31 24.3992C369.31 24.3992 369.779 24.279 369.779 23.8759C369.779 23.4728 368.958 23.3879 368.958 23.3879C368.958 23.3879 371.678 22.9706 371.678 22.0371C371.678 21.1036 369.31 20.46 369.31 20.46C369.31 20.46 369.849 20.269 369.849 20.0427C369.849 19.8164 369.38 19.7103 369.38 19.7103C369.38 19.7103 370.154 19.2223 370.037 18.9253C369.919 18.6283 369.45 18.5081 369.263 18.0979C369.153 17.8645 368.981 17.6523 368.763 17.4826V17.426L368.724 17.4614L368.684 17.426V17.4826C368.552 17.5745 368.301 17.8008 368.184 18.0979C368.004 18.5151 367.528 18.6212 367.41 18.9253C367.293 19.2223 368.067 19.7103 368.067 19.7103C368.067 19.7103 367.598 19.8164 367.598 20.0427C367.598 20.269 368.137 20.46 368.137 20.46C368.137 20.46 365.769 21.0965 365.769 22.0371C365.769 22.9777 368.489 23.3879 368.489 23.3879C368.489 23.3879 367.668 23.4586 367.668 23.8759C367.668 24.2931 368.137 24.3992 368.137 24.3992C368.137 24.3992 366.754 24.2224 366.136 25.1347H364.354C363.729 24.2224 362.338 24.3992 362.338 24.3992C362.338 24.3992 362.807 24.279 362.807 23.8759C362.807 23.4728 361.986 23.3879 361.986 23.3879C361.986 23.3879 364.706 22.9706 364.706 22.0371C364.706 21.1036 362.338 20.46 362.338 20.46C362.338 20.46 362.877 20.269 362.877 20.0427C362.877 19.8164 362.408 19.7103 362.408 19.7103C362.408 19.7103 363.182 19.2223 363.065 18.9253C362.948 18.6283 362.479 18.5081 362.291 18.0979C362.182 17.8645 362.01 17.6523 361.791 17.4826V17.426L361.752 17.4614L361.713 17.426V17.4826C361.58 17.5745 361.33 17.8008 361.205 18.0979C361.033 18.5151 360.548 18.6212 360.431 18.9253C360.314 19.2223 361.087 19.7103 361.087 19.7103C361.087 19.7103 360.618 19.8164 360.618 20.0427C360.618 20.269 361.158 20.46 361.158 20.46C361.158 20.46 358.79 21.0965 358.79 22.0371C358.79 22.9777 361.509 23.3879 361.509 23.3879C361.509 23.3879 360.689 23.4586 360.689 23.8759C360.689 24.2931 361.158 24.3992 361.158 24.3992C361.158 24.3992 359.774 24.2224 359.141 25.1347H358.156C358.156 25.1347 357.359 18.897 358.156 17.3765C358.954 15.856 354.96 19.2365 354.96 19.2365C354.96 19.2365 353.897 18.7273 351.763 18.2322C349.629 17.723 350.427 20.757 350.427 20.757L352.287 22.2705C352.287 22.2705 351.224 29.5195 351.224 30.8703C351.224 32.2211 350.427 36.0896 350.427 36.0896C350.427 36.0896 349.629 37.0939 346.698 37.0939C343.768 37.0939 347.496 38.6074 348.559 39.7955C349.622 40.9836 347.496 42.3203 345.901 43.6711C344.307 45.0219 347.238 47.0445 345.104 47.5467C342.97 48.0559 344.041 51.0899 344.041 51.0899C344.041 51.0899 344.041 54.633 343.244 55.3049C342.447 55.9768 342.705 56.486 341.907 58.3389C341.11 60.1989 341.907 60.8708 340.047 61.7124C338.187 62.554 338.187 62.8934 336.593 64.909C334.998 66.9317 337.312 68.5583 337.312 68.5583L335.178 73.5089L333.748 75.5315C332.333 77.5542 334.099 79.1313 331.614 79.1313C329.128 79.1313 332.317 84.7466 328.065 86.3167C323.814 87.8867 328.065 87.2149 328.065 88.3393C328.065 89.4638 324.869 94.8529 324.869 94.8529C324.869 94.8529 323.806 96.6563 322.735 96.6563C321.664 96.6563 320.953 100.256 320.953 102.045C320.953 103.092 321.469 104.089 322.368 104.747C322.368 104.747 317.764 106.77 317.764 107.675C317.764 108.58 317.764 111.048 315.982 111.501C314.2 111.954 314.2 113.524 314.567 116.451C314.919 119.379 313.504 118.255 310.667 120.504C307.83 122.753 310.667 122.979 310.667 126.791C310.667 130.603 308.534 127.916 308.182 131.063C308.104 131.784 307.986 132.364 307.838 132.873L307.916 169.451H297.513C299.217 158.298 299.553 147.06 299.623 135.844H299.28V102.852L302.578 102.392L297.826 99.3862V95.2206L299.295 93.6011V92.2149L297.466 91.7552V88.9758H249.547V84.4496L253.549 82.434L249.938 81.7622V80.0082C249.938 79.6051 250.579 79.0747 250.579 79.0747L249.313 78.5443L248.891 76.5287L247.187 75.9983C247.187 75.9983 244.858 68.339 235.721 67.9359C235.721 67.9359 237.839 67.1297 235.932 66.8609L231.289 66.2457V66.1891C231.289 66.1891 231.211 66.1891 231.071 66.2103C230.93 66.1891 230.852 66.1891 230.852 66.1891V66.2457L226.209 66.8609C224.302 67.1368 226.42 67.9359 226.42 67.9359C217.299 68.339 214.954 75.9983 214.954 75.9983L213.25 76.5287L212.828 78.5443L211.562 79.0747C211.562 79.0747 212.203 79.6051 212.203 80.0082V81.7622L208.592 82.434L212.594 84.4496V88.9758H206.021L205.442 84.3223L207.146 82.5825L206.083 81.649V79.6334L201.847 77.7522L201.636 76.946L201.425 75.871L199.932 75.3406C199.932 75.3406 201.097 68.0137 192.187 64.1876C183.277 60.3616 175.852 58.8835 175.852 58.8835L176.391 58.2116H175.015L175.445 57.5397H173.851V57.0093L172.045 57.1366L171.834 56.2597L170.029 56.5921C170.029 56.5921 170.451 55.9202 168.763 55.4464L167.059 54.9725C167.059 54.9725 167.059 53.8339 165.793 53.7632C164.902 53.7137 164.12 53.7066 163.721 53.6924H163.463C163.073 53.6924 162.283 53.7137 161.392 53.7632C160.126 53.8339 160.126 54.9725 160.126 54.9725L158.422 55.4464C156.718 55.9202 157.156 56.5921 157.156 56.5921L155.351 56.2597L155.139 57.1366L153.334 57.0093V57.5397H151.74L152.162 58.2116H150.786L151.325 58.8835C151.325 58.8835 143.908 60.3616 134.99 64.1876C126.08 68.0137 127.245 75.3406 127.245 75.3406L125.768 75.871L125.556 76.946L125.345 77.7522L121.109 79.6334V81.649L120.046 82.5825L121.75 84.3223L121.172 88.9758H113.059V84.4496L117.061 82.434L113.45 81.7622V80.0082C113.45 79.6051 114.091 79.0747 114.091 79.0747L112.824 78.5443L112.402 76.5287L110.699 75.9983C110.699 75.9983 108.369 68.339 99.2483 67.9359C99.2483 67.9359 101.366 67.1297 99.4593 66.8609L94.8167 66.2457V66.1891C94.8167 66.1891 94.7385 66.1891 94.5979 66.2103C94.4572 66.1891 94.379 66.1891 94.379 66.1891V66.2457L89.7364 66.8609C87.8293 67.1368 89.9474 67.9359 89.9474 67.9359C80.8263 68.339 78.4816 75.9983 78.4816 75.9983L76.7777 76.5287L76.3478 78.5443L75.0816 79.0747C75.0816 79.0747 75.7225 79.6051 75.7225 80.0082V81.7622L72.1116 82.434L76.1133 84.4496V88.9758H27.7097V91.7552L25.8808 92.2149V93.6011L27.3502 95.2206V99.3862L22.5981 102.392L25.8964 102.852V135.844H15.6655V169.451H0L0.0781586 217L1920 216.978V169.451H1892.81L1892.79 169.536V169.614ZM583.081 131.19L576.133 131.897H556.937V100.73C559.985 97.3918 568.192 94.8458 570.013 94.3012C571.834 94.8316 580.041 97.3918 583.089 100.73V131.183L583.081 131.19ZM846.054 135.985V136.006H817.901V135.985L817.596 102.321L819.339 100.85L817.885 98.092C820.543 92.2786 828.828 91.8047 831.532 91.8189V91.8401C831.532 91.8401 831.688 91.8401 831.962 91.8259C832.235 91.8259 832.392 91.8401 832.392 91.8401V91.8189C835.104 91.8189 843.381 92.2786 846.038 98.092L844.584 100.85L846.327 102.321L846.038 135.985H846.054ZM1171.47 115.9H1171.32L1171.47 114.683V115.9ZM1659.6 115.992H1655.33V113.234L1656.44 113.036C1656.64 113.014 1657.18 112.979 1657.47 112.965L1658.49 113.036C1658.75 113.057 1659.6 113.234 1659.6 113.234V115.992ZM1667.66 115.956H1664.79V115.992V113.234L1665.9 113.036C1666.09 113.014 1666.63 112.979 1666.92 112.965L1667.66 113.014V115.964V115.956ZM1716.27 115.956H1711.85V113.248L1713 113.05C1713.19 113.029 1713.75 112.993 1714.06 112.979L1715.12 113.05C1715.4 113.071 1716.27 113.248 1716.27 113.248V115.956ZM1726.35 115.956H1721.92V113.248L1723.07 113.05C1723.27 113.029 1723.83 112.993 1724.13 112.979L1725.18 113.05C1725.46 113.071 1726.33 113.248 1726.33 113.248V115.956H1726.35ZM1740.59 89.1456H1736.11V86.253C1736.11 86.253 1737 86.0904 1737.29 86.055C1737.65 86.0196 1738 85.9984 1738.36 85.9843L1739.43 86.055C1739.83 86.1116 1740.22 86.1752 1740.61 86.253V89.1456H1740.59ZM1751.31 89.1456H1746.81V86.253C1746.81 86.253 1747.7 86.0904 1747.99 86.055C1748.35 86.0196 1748.7 85.9984 1749.06 85.9843L1750.13 86.055C1750.53 86.1116 1750.92 86.1752 1751.31 86.253V89.1456ZM1762.03 89.1456H1757.52V86.253C1757.52 86.253 1758.41 86.0904 1758.7 86.055C1758.91 86.0338 1759.48 85.9984 1759.77 85.9843L1760.85 86.055C1761.24 86.1116 1761.63 86.1752 1762.03 86.253V89.1456ZM1772.74 89.1456H1768.26V86.253C1768.26 86.253 1769.15 86.0904 1769.44 86.055C1769.79 86.0196 1770.15 85.9984 1770.51 85.9843L1771.58 86.055C1771.98 86.1116 1772.37 86.1752 1772.76 86.253V89.1456H1772.74ZM1783.46 89.1456H1778.97V86.253C1778.97 86.253 1779.86 86.0904 1780.15 86.055C1780.51 86.0196 1780.86 85.9984 1781.22 85.9843L1782.29 86.055C1782.69 86.1116 1783.08 86.1752 1783.47 86.253V89.1456H1783.46ZM1794.17 89.1456H1789.69V86.253C1789.69 86.253 1790.58 86.0904 1790.87 86.055C1791.23 86.0196 1791.58 85.9984 1791.94 85.9843L1793.01 86.055C1793.41 86.1116 1793.8 86.1752 1794.19 86.253V89.1456H1794.17ZM1811.45 115.956H1806.25V113.248L1807.61 113.05C1807.84 113.029 1808.5 112.993 1808.85 112.979L1810.09 113.05C1810.42 113.071 1811.45 113.248 1811.45 113.248V115.956H1811.44H1811.45ZM1823.28 115.956H1818.08V113.248L1819.44 113.05C1819.68 113.029 1820.33 112.993 1820.68 112.979L1821.93 113.05C1822.25 113.071 1823.29 113.248 1823.29 113.248V115.956H1823.27H1823.28Z" fill="url(#paint0_linear_273_77203)"/>
<defs>
<linearGradient id="paint0_linear_273_77203" x1="949.758" y1="0" x2="949.758" y2="217" gradientUnits="userSpaceOnUse">
<stop stop-color="#A4D9B7"/>
<stop offset="1" stop-color="white" stop-opacity="0"/>
</linearGradient>
</defs>
</svg>
