<svg width="1920" height="310" viewBox="0 0 1920 310" fill="none" xmlns="http://www.w3.org/2000/svg">
<rect width="1922" height="310" fill="url(#paint0_linear_362_7)"/>
<path d="M1892.79 260.085V225.394H1883.92V204.697H1881.81V201.901C1881.81 201.901 1882.3 201.645 1882.3 201.463C1882.3 201.28 1882.57 200.996 1882.57 200.996L1883.64 200.828L1881.72 200.47C1881.72 200.47 1881.85 199.689 1881.59 199.477L1879.12 197.608L1879.01 196.126V195.944V196.031L1878.99 195.944V196.126L1878.87 197.608L1876.41 199.477C1876.15 199.682 1876.28 200.47 1876.28 200.47L1874.36 200.828L1875.43 200.996C1875.43 200.996 1875.68 201.288 1875.68 201.463C1875.68 201.638 1876.17 201.901 1876.17 201.901V204.697H1872.05V201.901C1872.05 201.901 1872.55 201.645 1872.55 201.463C1872.55 201.28 1872.81 200.996 1872.81 200.996L1873.88 200.828L1871.96 200.47C1871.96 200.47 1872.09 199.689 1871.82 199.477L1869.36 197.608L1869.24 196.126V195.944V196.031L1869.23 195.944V196.126L1869.11 197.608L1866.65 199.477C1866.39 199.682 1866.52 200.47 1866.52 200.47L1865.09 200.726C1864.87 199.134 1863.69 192.805 1859.25 191.885L1854.16 190.834L1855.1 190.22C1855.1 190.22 1854.83 189.863 1853.09 189.695C1851.35 189.527 1850.41 189.337 1849.74 189.001C1849.07 188.643 1848.26 187.694 1848.26 187.694L1849.33 187.337C1849.33 187.337 1847.85 186.723 1847.72 186.373C1847.59 186.023 1848.38 185.409 1847.99 185.154C1847.68 184.949 1846.93 183.212 1846.65 182.489V182.183L1846.59 182.343L1846.52 182.183V182.489C1846.23 183.212 1845.49 184.949 1845.18 185.154C1844.77 185.424 1845.59 186.037 1845.45 186.373C1845.32 186.731 1843.84 187.337 1843.84 187.337L1844.91 187.694C1844.91 187.694 1844.12 188.658 1843.44 189.001C1842.77 189.359 1841.83 189.527 1840.08 189.695C1838.34 189.863 1838.07 190.22 1838.07 190.22L1839.01 190.834L1833.92 191.885C1828.84 192.936 1828.04 201.076 1828.04 201.076H1826.04V204.682H1824.06V201.886C1824.06 201.886 1824.66 201.631 1824.66 201.448C1824.66 201.266 1824.99 200.981 1824.99 200.981L1826.3 200.813L1823.97 200.455C1823.97 200.455 1824.12 199.674 1823.81 199.463L1820.82 197.594L1820.68 196.112V195.929V196.017L1820.67 195.929V196.112L1820.53 197.594L1817.54 199.463C1817.21 199.667 1817.39 200.455 1817.39 200.455L1815.06 200.813L1816.36 200.981C1816.36 200.981 1816.69 201.273 1816.69 201.448C1816.69 201.623 1817.29 201.886 1817.29 201.886V204.682H1812.28V201.886C1812.28 201.886 1812.88 201.631 1812.88 201.448C1812.88 201.266 1813.21 200.981 1813.21 200.981L1814.52 200.813L1812.19 200.455C1812.19 200.455 1812.36 199.674 1812.03 199.463L1809.05 197.594L1808.91 196.112V195.929V196.017L1808.89 195.929V196.112L1808.75 197.594L1805.76 199.463C1805.44 199.667 1805.61 200.455 1805.61 200.455L1803.28 200.813L1804.58 200.981C1804.58 200.981 1804.9 201.273 1804.9 201.448C1804.9 201.623 1805.51 201.886 1805.51 201.886V204.682H1802.21V172.232L1800.17 167.443L1798.33 172.342V177.014H1794.94V174.028C1794.94 174.028 1795.46 173.758 1795.46 173.59C1795.46 173.422 1795.75 173.123 1795.75 173.123L1796.88 172.955L1794.86 172.597C1794.86 172.597 1795 171.816 1794.72 171.604L1792.14 169.735L1792.01 168.253V168.071V168.159L1791.99 168.071V168.253L1791.86 169.735L1789.28 171.604C1788.99 171.809 1789.14 172.597 1789.14 172.597L1787.12 172.955L1788.25 173.123C1788.25 173.123 1788.54 173.415 1788.54 173.59C1788.54 173.765 1789.06 174.028 1789.06 174.028V177.014H1784.25V174.028C1784.25 174.028 1784.77 173.758 1784.77 173.59C1784.77 173.422 1785.06 173.123 1785.06 173.123L1786.18 172.955L1784.17 172.597C1784.17 172.597 1784.31 171.816 1784.03 171.604L1781.43 169.735L1781.3 168.253V168.071V168.159L1781.28 168.071V168.253L1781.15 169.735L1778.57 171.604C1778.28 171.809 1778.43 172.597 1778.43 172.597L1776.41 172.955L1777.54 173.123C1777.54 173.123 1777.83 173.415 1777.83 173.59C1777.83 173.765 1778.35 174.028 1778.35 174.028V177.014H1773.54V174.028C1773.54 174.028 1774.06 173.758 1774.06 173.59C1774.06 173.422 1774.35 173.123 1774.35 173.123L1775.48 172.955L1773.46 172.597C1773.46 172.597 1773.6 171.816 1773.32 171.604L1770.74 169.735L1770.61 168.253V168.071V168.159L1770.59 168.071V168.253L1770.46 169.735L1767.88 171.604C1767.59 171.809 1767.74 172.597 1767.74 172.597L1765.72 172.955L1766.85 173.123C1766.85 173.123 1767.14 173.415 1767.14 173.59C1767.14 173.765 1767.66 174.028 1767.66 174.028V177.014H1762.85V174.028C1762.85 174.028 1763.35 173.758 1763.35 173.59C1763.35 173.422 1763.64 173.123 1763.64 173.123L1764.77 172.955L1762.75 172.597C1762.75 172.597 1762.89 171.816 1762.61 171.604L1760.02 169.735L1759.88 168.253V168.071V168.159L1759.87 168.071V168.253L1759.74 169.735L1757.14 171.604C1756.87 171.809 1757 172.597 1757 172.597L1754.98 172.955L1756.11 173.123C1756.11 173.123 1756.4 173.415 1756.4 173.59C1756.4 173.765 1756.91 174.028 1756.91 174.028V177.014H1752.09V174.028C1752.09 174.028 1752.62 173.758 1752.62 173.59C1752.62 173.422 1752.9 173.123 1752.9 173.123L1754.03 172.955L1752.01 172.597C1752.01 172.597 1752.15 171.816 1751.87 171.604L1749.29 169.735L1749.18 168.253V168.071V168.159L1749.16 168.071V168.253L1749.03 169.735L1746.45 171.604C1746.16 171.809 1746.31 172.597 1746.31 172.597L1744.29 172.955L1745.42 173.123C1745.42 173.123 1745.71 173.415 1745.71 173.59C1745.71 173.765 1746.23 174.028 1746.23 174.028V177.014H1741.42V174.028C1741.42 174.028 1741.94 173.758 1741.94 173.59C1741.94 173.422 1742.23 173.123 1742.23 173.123L1743.35 172.955L1741.34 172.597C1741.34 172.597 1741.48 171.816 1741.2 171.604L1738.62 169.735L1738.48 168.253V168.071V168.159L1738.47 168.071V168.253L1738.34 169.735L1735.74 171.604C1735.47 171.809 1735.6 172.597 1735.6 172.597L1733.58 172.955L1734.71 173.123C1734.71 173.123 1735 173.415 1735 173.59C1735 173.765 1735.51 174.028 1735.51 174.028V177.014H1733.1V172.225L1731.25 168.378L1729.41 172.349V175.846L1728.31 176.539V177.357L1729.04 178.175V204.675H1727.14V201.879C1727.14 201.879 1727.65 201.624 1727.65 201.441C1727.65 201.258 1727.93 200.974 1727.93 200.974L1729.03 200.806L1727.04 200.448C1727.04 200.448 1727.18 199.667 1726.91 199.455L1724.37 197.586L1724.25 196.104V195.922V196.01L1724.24 195.922V196.104L1724.12 197.586L1721.58 199.455C1721.3 199.66 1721.44 200.448 1721.44 200.448L1719.44 200.806L1720.55 200.974C1720.55 200.974 1720.83 201.266 1720.83 201.441C1720.83 201.616 1721.34 201.879 1721.34 201.879V204.675H1717.07V201.879C1717.07 201.879 1717.58 201.624 1717.58 201.441C1717.58 201.258 1717.85 200.974 1717.85 200.974L1718.96 200.806L1716.97 200.448C1716.97 200.448 1717.11 199.667 1716.83 199.455L1714.29 197.586L1714.17 196.104V195.922V196.01L1714.15 195.922V196.104L1714.04 197.586L1711.5 199.455C1711.22 199.66 1711.36 200.448 1711.36 200.448L1709.36 200.806L1710.47 200.974C1710.47 200.974 1710.75 201.266 1710.75 201.441C1710.75 201.616 1711.25 201.879 1711.25 201.879V204.675H1708.86V201.069H1706.86C1706.86 201.069 1706.06 192.929 1700.98 191.878L1695.89 190.826L1696.83 190.213C1696.83 190.213 1696.58 189.855 1694.83 189.687C1693.09 189.519 1692.15 189.33 1691.48 188.994C1690.82 188.636 1690 187.687 1690 187.687L1691.07 187.329C1691.07 187.329 1689.6 186.716 1689.46 186.366C1689.33 186.015 1690.13 185.402 1689.74 185.147C1689.42 184.942 1688.67 183.205 1688.39 182.482V182.175L1688.33 182.336L1688.27 182.175V182.482C1687.96 183.205 1687.24 184.942 1686.92 185.147C1686.52 185.417 1687.33 186.03 1687.18 186.366C1687.05 186.723 1685.57 187.329 1685.57 187.329L1686.64 187.687C1686.64 187.687 1685.84 188.651 1685.16 188.994C1684.5 189.352 1683.55 189.519 1681.81 189.687C1680.07 189.855 1679.79 190.213 1679.79 190.213L1680.74 190.826L1675.65 191.878C1671.42 192.761 1670.14 198.565 1669.85 200.47H1669.75C1669.75 200.47 1669.88 199.66 1669.62 199.455L1667.16 197.586L1667.04 196.104V195.922V196.01L1667.02 195.922V196.104L1666.91 197.586L1664.44 199.455C1664.19 199.66 1664.31 200.448 1664.31 200.448L1662.39 200.806L1663.46 200.974C1663.46 200.974 1663.72 201.266 1663.72 201.441C1663.72 201.616 1664.2 201.879 1664.2 201.879V204.726H1660.36V201.879C1660.36 201.879 1660.86 201.624 1660.86 201.441C1660.86 201.258 1661.12 200.974 1661.12 200.974L1662.19 200.806L1660.26 200.448C1660.26 200.448 1660.4 199.667 1660.13 199.455L1657.67 197.586L1657.55 196.104V195.922V196.01L1657.54 195.922V196.104L1657.42 197.586L1654.96 199.455C1654.7 199.66 1654.82 200.448 1654.82 200.448L1652.9 200.806L1653.97 200.974C1653.97 200.974 1654.23 201.266 1654.23 201.441C1654.23 201.616 1654.73 201.879 1654.73 201.879V204.726H1653.53V225.386H1648.34V183.497L1647.2 181.431H1643.16V163.924L1644.03 162.42V160.72L1641.72 159.778V150.185L1643.74 149.426V147.725L1641.72 146.403V139.439L1642.87 138.315V136.811L1641.43 135.869L1640.86 133.986L1642.58 133.226C1642.58 133.226 1643.13 127.43 1638.26 127.211H1637.97C1633.1 127.43 1633.65 133.226 1633.65 133.226L1635.38 133.986L1634.8 135.869L1633.36 136.811V138.315L1634.51 139.439V146.403L1632.49 147.725V149.426L1634.51 150.185V159.778L1632.2 160.72V162.42L1633.07 163.924V181.431H1632.45V181.248H1626.61V179.022L1627.37 177.7V176.211L1625.33 175.379V166.947L1627.1 166.29V164.8L1625.33 163.64V157.529L1626.34 156.536V155.215L1625.08 154.383L1624.57 152.733L1626.08 152.076C1626.08 152.076 1626.57 146.987 1622.29 146.798H1622.03C1617.74 146.995 1618.23 152.076 1618.23 152.076L1619.75 152.733L1619.24 154.383L1617.97 155.215V156.536L1618.98 157.529V163.64L1617.21 164.8V166.29L1618.98 166.947V175.379L1616.95 176.211V177.7L1617.71 179.022V181.248H1604.18V172.218L1602.45 170.896L1606.77 167.312L1602.45 167.129C1602.45 167.129 1601.86 164.267 1600.43 163.18C1598.34 161.581 1596.4 160.917 1596.4 160.917C1596.4 160.917 1592.08 162.041 1590.93 163.742C1589.78 165.443 1589.78 166.947 1589.78 166.947H1586.04L1588.63 170.334H1550.97L1553.56 166.947H1549.82C1549.82 166.947 1549.82 165.443 1548.67 163.742C1547.52 162.041 1543.2 160.917 1543.2 160.917C1543.2 160.917 1540.32 161.858 1539.16 163.18C1538.08 164.428 1537.15 167.129 1537.15 167.129L1532.83 167.312L1537.15 170.896L1535.42 172.218V181.248H1525.2V179.022L1525.96 177.7V176.211L1523.92 175.379V166.947L1525.69 166.29V164.8L1523.92 163.64V157.529L1524.93 156.536V155.215L1523.67 154.383L1523.16 152.733L1524.67 152.076C1524.67 152.076 1525.16 146.987 1520.88 146.798H1520.62C1516.33 146.995 1516.82 152.076 1516.82 152.076L1518.33 152.733L1517.83 154.383L1516.56 155.215V156.536L1517.57 157.529V163.64L1515.8 164.8V166.29L1517.57 166.947V175.379L1515.54 176.211V177.7L1516.3 179.022V181.248H1510.3V163.924L1511.17 162.42V160.72L1508.86 159.778V150.185L1510.88 149.426V147.725L1508.86 146.403V139.439L1510.01 138.315V136.811L1508.57 135.869L1507.99 133.986L1509.72 133.226C1509.72 133.226 1510.27 127.43 1505.4 127.211H1505.11C1500.24 127.43 1500.79 133.226 1500.79 133.226L1502.52 133.986L1501.94 135.869L1500.5 136.811V138.315L1501.65 139.439V146.403L1499.63 147.725V149.426L1501.65 150.185V159.778L1499.34 160.72V162.42L1500.21 163.924V181.431H1496.18L1495.03 183.497V225.386H1490.72V221.634L1488.98 220.342V200.733C1488.98 200.733 1491.7 200.083 1491.45 199.441C1491.2 198.798 1487.49 198.462 1487.49 198.462V176.598C1487.49 176.598 1490.21 175.306 1490.21 174.817C1490.21 174.327 1485.74 173.189 1485.74 173.189V153.426L1488.21 151.156L1484.25 149.528V146.608C1484.25 146.608 1486.07 144.666 1485.57 144.286C1485.07 143.907 1483.18 142.293 1481.77 142.184C1481.77 142.184 1482.35 139.811 1479.54 139.753L1477.58 134.256V132.358H1476.9V134.256L1474.94 139.753C1472.13 139.804 1472.71 142.184 1472.71 142.184C1471.31 142.293 1469.4 143.907 1468.92 144.286C1468.42 144.666 1470.24 146.608 1470.24 146.608V149.528L1466.27 151.156L1468.74 153.426V173.189C1468.74 173.189 1464.28 174.327 1464.28 174.817C1464.28 175.306 1467 176.598 1467 176.598V198.462C1467 198.462 1463.28 198.791 1463.04 199.441C1462.8 200.09 1465.51 200.733 1465.51 200.733V201.543C1465.23 201.018 1464.34 200.638 1463.28 200.638C1462 200.638 1460.97 201.185 1460.97 201.886C1460.97 201.2 1459.93 200.638 1458.66 200.638C1457.39 200.638 1456.35 201.185 1456.35 201.886C1456.35 201.2 1455.32 200.638 1454.04 200.638C1452.77 200.638 1451.73 201.185 1451.73 201.886C1451.73 201.2 1450.7 200.638 1449.42 200.638C1448.15 200.638 1447.11 201.185 1447.11 201.886C1447.11 201.2 1446.08 200.638 1444.8 200.638C1443.53 200.638 1442.49 201.185 1442.49 201.886C1442.49 201.397 1441.98 200.981 1441.22 200.777V199.616C1441.22 199.616 1442.95 199.054 1441.72 198.076C1441.72 198.076 1445.8 188.833 1432.93 185.767C1432.93 185.767 1433.05 184.475 1429.96 184.139C1426.86 183.818 1426.61 182.686 1426 182.197C1425.39 181.708 1425.63 181.058 1425.63 180.817C1425.63 180.577 1425.75 180.087 1425.5 179.766C1425.25 179.438 1425.25 178.627 1425.38 178.226C1425.42 178.094 1425.3 177.649 1425.13 177.138V174.904H1424.26V177.138C1424.09 177.649 1423.97 178.094 1424.01 178.226C1424.15 178.627 1424.15 179.438 1423.9 179.766C1423.65 180.095 1423.78 180.577 1423.78 180.817C1423.78 181.058 1424.03 181.708 1423.41 182.197C1422.79 182.686 1422.54 183.825 1419.45 184.139C1416.35 184.468 1416.48 185.767 1416.48 185.767C1403.59 188.848 1407.69 198.076 1407.69 198.076C1406.44 199.054 1408.19 199.616 1408.19 199.616V200.653H1407.86C1406.58 200.638 1405.54 201.193 1405.54 201.886C1405.54 201.2 1404.51 200.638 1403.24 200.638C1401.96 200.638 1400.93 201.185 1400.93 201.886C1400.93 201.2 1399.89 200.638 1398.62 200.638C1398.42 200.638 1398.24 200.653 1398.06 200.674V185.628L1398.71 184.869V184.11L1397.64 183.402V180.321C1397.64 180.321 1398.14 180 1398.06 179.722C1397.99 179.452 1397.49 179.292 1397.49 179.292V178.481C1397.49 178.481 1397.56 177.561 1398.48 177.233C1399.39 176.904 1400.22 176.744 1399.88 176.423C1399.55 176.094 1398.14 175.393 1398.14 175.393V173.612C1398.14 173.612 1400.21 172.918 1399.96 172.692C1399.71 172.466 1397.56 171.553 1397.31 171.4C1397.1 171.269 1395.67 167.487 1395.27 166.436H1395.17C1394.78 167.487 1393.34 171.261 1393.13 171.4C1392.88 171.561 1390.74 172.473 1390.49 172.692C1390.24 172.911 1392.31 173.612 1392.31 173.612V175.393C1392.31 175.393 1390.91 176.087 1390.57 176.423C1390.24 176.751 1391.07 176.912 1391.97 177.233C1392.87 177.561 1392.96 178.481 1392.96 178.481V179.292C1392.96 179.292 1392.46 179.452 1392.38 179.722C1392.3 179.992 1392.8 180.321 1392.8 180.321V180.562H1383.1C1383.1 180.562 1382.23 177.729 1378.38 176.992C1378.38 176.992 1375.91 174.802 1373.3 174.072C1370.69 173.342 1368.59 170.831 1368.59 170.831C1368.59 170.831 1369.09 170.502 1369.09 169.538C1369.09 168.575 1368.35 168.326 1368.35 167.837C1368.35 167.348 1368.1 165.976 1368.1 165.976L1367.23 160.625V159.099H1366.98V160.625L1366.11 165.976C1366.11 165.976 1365.86 167.356 1365.86 167.837C1365.86 168.319 1365.12 168.567 1365.12 169.538C1365.12 170.509 1365.62 170.831 1365.62 170.831C1365.62 170.831 1363.51 173.335 1360.91 174.072C1358.31 174.809 1355.83 176.992 1355.83 176.992C1351.98 177.722 1351.11 180.562 1351.11 180.562H1342.09V180.321C1342.09 180.321 1342.59 180 1342.51 179.722C1342.43 179.452 1341.93 179.292 1341.93 179.292V178.481C1341.93 178.481 1342.01 177.561 1342.92 177.233C1343.83 176.904 1344.67 176.744 1344.32 176.423C1343.99 176.094 1342.58 175.393 1342.58 175.393V173.612C1342.58 173.612 1344.65 172.918 1344.4 172.692C1344.15 172.466 1342.01 171.553 1341.76 171.4C1341.55 171.269 1340.11 167.487 1339.72 166.436H1339.62C1339.23 167.487 1337.79 171.261 1337.58 171.4C1337.33 171.561 1335.19 172.473 1334.94 172.692C1334.69 172.911 1336.76 173.612 1336.76 173.612V175.393C1336.76 175.393 1335.36 176.087 1335.01 176.423C1334.69 176.751 1335.51 176.912 1336.41 177.233C1337.32 177.561 1337.41 178.481 1337.41 178.481V179.292C1337.41 179.292 1336.91 179.452 1336.83 179.722C1336.75 179.992 1337.23 180.321 1337.23 180.321V183.402L1336.16 184.095V184.855L1336.83 185.614V200.733L1337.01 200.901C1336.5 201.134 1336.16 201.477 1336.16 201.864C1336.16 201.178 1335.12 200.616 1333.84 200.616C1332.56 200.616 1331.53 201.164 1331.53 201.864C1331.53 201.178 1330.5 200.616 1329.22 200.616C1327.95 200.616 1326.91 201.164 1326.91 201.864C1326.91 201.178 1325.88 200.616 1324.6 200.616H1324.49V199.587C1324.49 199.587 1326.23 199.025 1324.99 198.046C1324.99 198.046 1329.08 188.804 1316.19 185.738C1316.19 185.738 1316.31 184.446 1313.22 184.11C1310.12 183.789 1309.87 182.657 1309.26 182.168C1308.65 181.679 1308.88 181.029 1308.88 180.788C1308.88 180.547 1308.99 180.058 1308.76 179.737C1308.51 179.408 1308.51 178.598 1308.63 178.197C1308.67 178.065 1308.55 177.62 1308.38 177.109V174.875H1307.51V177.109C1307.34 177.62 1307.22 178.065 1307.26 178.197C1307.38 178.598 1307.38 179.408 1307.13 179.737C1306.88 180.065 1307.01 180.547 1307.01 180.788C1307.01 181.029 1307.26 181.679 1306.64 182.168C1306.03 182.657 1305.77 183.796 1302.68 184.11C1299.58 184.438 1299.71 185.738 1299.71 185.738C1286.82 188.819 1290.92 198.046 1290.92 198.046C1289.67 199.01 1291.42 199.587 1291.42 199.587V200.696C1290.55 200.879 1289.92 201.317 1289.92 201.857C1289.92 201.171 1288.89 200.609 1287.62 200.609C1286.34 200.609 1285.31 201.156 1285.31 201.857C1285.31 201.171 1284.27 200.609 1283 200.609C1281.73 200.609 1280.69 201.156 1280.69 201.857C1280.69 201.171 1279.65 200.609 1278.38 200.609C1277.11 200.609 1276.07 201.156 1276.07 201.857C1276.07 201.171 1275.04 200.609 1273.76 200.609C1272.49 200.609 1271.45 201.156 1271.45 201.857C1271.45 201.171 1270.42 200.609 1269.14 200.609C1268.4 200.609 1267.73 200.806 1267.31 201.098V200.718C1267.31 200.718 1270.03 200.069 1269.78 199.426C1269.53 198.784 1265.82 198.448 1265.82 198.448V176.583C1265.82 176.583 1268.54 175.291 1268.54 174.802C1268.54 174.313 1264.08 173.174 1264.08 173.174V153.412L1266.55 151.141L1262.58 149.513V146.593C1262.58 146.593 1264.41 144.651 1263.91 144.272C1263.41 143.892 1261.51 142.279 1260.11 142.169C1260.11 142.169 1260.69 139.797 1257.88 139.738L1255.92 134.241V132.343H1255.24V134.241L1253.28 139.738C1250.46 139.789 1251.05 142.169 1251.05 142.169C1249.65 142.279 1247.75 143.892 1247.25 144.272C1246.75 144.651 1248.57 146.593 1248.57 146.593V149.513L1244.61 151.141L1247.08 153.412V173.174C1247.08 173.174 1242.61 174.313 1242.61 174.802C1242.61 175.291 1245.33 176.583 1245.33 176.583V198.448C1245.33 198.448 1241.61 198.769 1241.37 199.426C1241.12 200.076 1243.84 200.718 1243.84 200.718V220.327L1242.1 221.619V225.372H1236.21V204.617H1232.56L1232.45 202.383L1228.72 202.003V180.817L1230.72 179.511V178.007L1227.85 177.824V157.201L1229 155.894V154.587H1226.42L1224.71 131.898L1226.71 130.956V129.087L1224.71 128.525V122.706L1227.58 121.765L1225 121.02C1225 121.02 1223.56 115.216 1218.69 115.216L1217.54 109.836V107.149H1216.96V109.836L1215.81 115.216C1210.93 115.216 1209.51 121.02 1209.51 121.02L1206.93 121.765L1209.8 122.706V128.525L1207.8 129.087V130.956L1209.8 131.898L1208.07 154.587H1205.49V155.894L1206.64 157.201V177.824L1203.77 178.007V179.511L1205.77 180.817V202.003L1202.04 202.383L1201.93 204.617H1189.06V189.008L1190.59 188.008V186.862L1188.4 186.716V170.933L1189.27 169.933V168.932H1187.29L1185.97 151.572L1187.51 150.849V149.419L1185.97 148.988V144.542L1188.17 143.819L1186.19 143.242C1186.19 143.242 1185.09 138.796 1181.36 138.796L1180.49 134.679V132.628H1180.04V134.679L1179.17 138.796C1175.44 138.796 1174.34 143.242 1174.34 143.242L1172.36 143.819L1174.55 144.542V148.988L1173.02 149.419V150.849L1174.55 151.572L1173.25 168.932H1171.27V169.933L1172.15 170.933V186.716L1169.95 186.862V188.008L1171.48 189.008V202.427H1149.6V160.99L1150.93 160.427C1150.93 160.427 1148.93 157.296 1148.93 157.113C1148.93 156.931 1147.98 149.922 1147.98 149.922H1140.9L1135.45 153.419V156.792L1128 156.288L1123.88 156.347L1123.79 147.973L1125.61 147.535L1126.19 146.469L1124.19 145.965C1124.19 145.965 1124.48 138.534 1116.26 136.468L1117.01 136.227L1111.95 134.416C1111.66 134.358 1110.42 133.854 1110.42 133.854L1109.75 127.912L1108.71 133.971C1108.71 133.971 1107.27 134.475 1106.51 134.789C1105.75 135.102 1103.56 136.161 1103.56 136.161L1103.94 136.599L1104.81 136.84C1104.81 136.84 1102.98 136.964 1102.03 137.65C1101.08 138.337 1100.59 138.775 1100.59 138.775L1100.79 135.708C1100.79 135.708 1113.22 117.078 1078.43 103.331C1078.43 103.331 1079.67 102.587 1078.81 102.024C1077.95 101.462 1075.65 101.207 1073.64 100.338C1071.64 99.4547 1068.96 97.0894 1067.43 96.5857C1065.9 96.082 1065.32 95.9652 1065.32 95.9652C1065.32 95.9652 1066.08 95.7243 1065.8 95.4614C1065.52 95.2059 1064.47 94.8409 1064.47 94.8409C1064.47 94.8409 1064.37 93.8992 1063.8 93.6582C1063.23 93.4173 1061.9 93.1545 1061.9 93.1545V92.5924C1061.9 92.5924 1063.23 92.0303 1063.23 91.5922C1063.23 91.1542 1062.19 90.5921 1062.19 90.5921V89.9059C1062.19 89.9059 1063.81 89.5262 1063.81 88.6575C1063.81 87.7887 1062.08 86.409 1062.08 86.409L1061.9 85.0146C1061.77 85.0146 1061.65 85.0146 1061.51 85L1061.33 86.4163C1061.33 86.4163 1059.62 87.796 1059.62 88.6648C1059.62 89.5335 1061.25 89.9132 1061.25 89.9132V90.5994C1061.25 90.5994 1060.2 91.1615 1060.2 91.5995C1060.2 92.0376 1061.54 92.5924 1061.54 92.5997V93.1618C1061.54 93.1618 1060.2 93.4173 1059.63 93.6655C1059.06 93.9138 1058.97 94.8482 1058.97 94.8482C1058.97 94.8482 1057.92 95.2278 1057.63 95.4687C1057.34 95.7097 1058.11 95.9725 1058.11 95.9725C1058.11 95.9725 1057.54 96.0966 1056 96.593C1054.47 97.0894 1051.81 99.462 1049.79 100.345C1047.79 101.229 1045.48 101.47 1044.62 102.032C1043.76 102.594 1045.01 103.339 1045.01 103.339C1010.21 117.092 1022.63 135.716 1022.63 135.716L1022.83 138.782C1022.83 138.782 1022.34 138.344 1021.39 137.658C1020.44 136.971 1018.62 136.847 1018.62 136.847L1019.49 136.606L1019.87 136.168C1019.87 136.168 1017.67 135.102 1016.9 134.796C1016.14 134.475 1014.7 133.978 1014.7 133.978L1013.66 127.919L1012.99 133.861C1012.99 133.861 1011.75 134.365 1011.46 134.424C1011.17 134.482 1006.4 136.234 1006.4 136.234L1007.15 136.475C998.94 138.541 999.221 145.973 999.221 145.973L997.22 146.476L997.799 147.542L999.62 147.98L999.526 156.354L996.79 156.317V150.645C996.79 150.645 997.236 150.441 997.173 150.316C997.111 150.192 996.861 149.849 996.861 149.849L997.173 148.966L997.752 148.674L997.244 148.433C997.244 147.893 996.157 147.688 996.157 147.688L995.774 144.52L995.462 147.688C994.508 147.776 994.508 148.433 994.508 148.433C994.508 148.433 993.867 148.557 993.734 148.674C993.602 148.791 994.375 148.878 994.375 148.878C994.375 148.878 994.375 149.046 994.508 149.258C994.641 149.47 994.688 149.966 994.688 149.966C994.688 149.966 994.305 150.17 994.375 150.295C994.446 150.419 994.688 150.499 994.688 150.499V156.317L987.958 156.77V153.397L983.98 150.842V148.25C983.98 148.25 984.426 148.046 984.363 147.922C984.301 147.798 984.051 147.455 984.051 147.455L984.363 146.571L984.942 146.279L984.434 146.038C984.434 145.498 983.347 145.294 983.347 145.294L982.964 142.125L982.651 145.294C981.698 145.381 981.698 146.038 981.698 146.038C981.698 146.038 981.057 146.163 980.924 146.279C980.791 146.396 981.565 146.484 981.565 146.484C981.565 146.484 981.565 146.652 981.698 146.863C981.831 147.075 981.878 147.572 981.878 147.572C981.878 147.572 981.495 147.776 981.565 147.9C981.635 148.024 981.878 148.104 981.878 148.104V149.878H979.009V143.899C979.009 143.899 979.455 143.695 979.392 143.571C979.33 143.447 979.08 143.104 979.08 143.104L979.392 142.22L979.971 141.928L979.463 141.687C979.463 141.147 978.376 140.943 978.376 140.943L977.993 137.774L977.681 140.943C976.727 141.03 976.727 141.687 976.727 141.687C976.727 141.687 976.086 141.812 975.969 141.928C975.836 142.052 976.61 142.133 976.61 142.133C976.61 142.133 976.61 142.301 976.743 142.512C976.876 142.724 976.938 143.221 976.938 143.221C976.938 143.221 976.555 143.425 976.626 143.549C976.696 143.673 976.938 143.753 976.938 143.753V149.696L976.555 149.513C976.555 148.973 975.469 148.769 975.469 148.769L975.086 145.6L974.773 148.769C973.82 148.856 973.82 149.513 973.82 149.513C973.82 149.513 973.179 149.638 973.061 149.754C972.929 149.878 973.702 149.959 973.702 149.959C973.702 149.959 973.702 150.127 973.835 150.338C973.968 150.55 974.031 151.047 974.031 151.047C974.031 151.047 973.648 151.251 973.718 151.375C973.788 151.499 974.031 151.579 974.031 151.579V157.96C973.445 158.938 972.538 160.34 972.538 160.34L973.874 160.902V202.339H952.857V188.921L954.405 187.921V186.775L952.209 186.629V170.845L953.084 169.845V168.845H951.107L949.786 151.485L951.318 150.762V149.331L949.786 148.9V144.454L951.982 143.732L950.005 143.155C950.005 143.155 948.903 138.709 945.174 138.709L944.299 134.591V132.54H943.869V134.591L942.994 138.709C939.266 138.709 938.164 143.155 938.164 143.155L936.186 143.732L938.382 144.454V148.9L936.851 149.331V150.762L938.382 151.485L937.062 168.845H935.084V169.845L935.96 170.845V186.629L933.763 186.775V187.921L935.295 188.921V204.529H923.493L923.376 202.295L919.648 201.916V180.73L921.649 179.423V177.919L918.78 177.737V157.113L919.929 155.806V154.5H917.35L915.638 131.81L917.639 130.868V128.999L915.638 128.437V122.619L918.507 121.677L915.928 120.932C915.928 120.932 914.489 115.129 909.62 115.129L908.471 109.748V107.062H907.893V109.748L906.744 115.129C901.859 115.129 900.437 120.932 900.437 120.932L897.857 121.677L900.726 122.619V128.437L898.725 128.999V130.868L900.726 131.81L898.998 154.5H896.419V155.806L897.568 157.113V177.737L894.7 177.919V179.423L896.701 180.73V201.916L892.972 202.295L892.855 204.529H890.424V225.284H885.516C887.306 233.482 888.658 241.593 888.83 249.915L889.01 259.975H884.25C885.758 247.382 883.664 234.636 883.492 222.035H882.835V198.295L884 196.396H882.835V170.582L886.907 165.268V163.18H880.522V156.529L878.193 156.332V152.163L871.807 151.404V139.826H852.94V137.928H848.008C848.008 137.928 840.169 135.081 837.55 134.701C837.55 134.701 837.042 133.526 832.618 133.219V133.168C832.478 133.168 832.329 133.182 832.188 133.19C832.048 133.19 831.899 133.175 831.759 133.168V133.219C827.335 133.511 826.827 134.701 826.827 134.701C824.208 135.081 816.369 137.928 816.369 137.928H811.437V139.826H792.57V151.404L786.184 152.163V156.332L783.855 156.529V163.18H777.47V165.268L781.542 170.582V196.396H780.377L781.542 198.295V222.021H781.096C781.354 222.473 781.518 222.977 781.503 223.547C781.464 234.183 780.557 244.827 778.548 255.362H774.789V251.23H758.657L761.009 247.192L761.377 244.82L752.138 236.578L744.338 240.783V234.147C744.338 234.147 746.511 232.022 745.792 229.65C745.073 227.277 743.619 225.861 742.165 222.539C740.712 219.225 745.073 217.319 744.338 210.698C743.619 204.062 739.258 201.689 739.258 200.981C739.258 200.273 746.511 200.981 743.971 198.857C741.431 196.718 739.977 189.614 739.977 189.614V186.059C739.977 186.059 742.15 184.395 741.063 183.686C739.977 182.978 739.977 181.788 740.344 180.606C740.712 179.423 741.063 179.649 739.977 176.817C738.891 173.97 737.804 168.765 737.804 168.765C737.804 168.765 740.344 167.823 739.977 166.392C739.61 164.976 738.523 163.078 738.523 163.078C738.523 163.078 741.431 162.603 741.063 161.895C740.696 161.187 739.258 159.522 738.156 159.289C737.069 159.055 737.069 155.974 737.069 155.974C737.069 155.974 738.891 155.266 739.242 153.835C739.61 152.419 739.961 150.046 739.961 150.046C739.961 150.046 742.134 151.229 743.22 149.09C744.307 146.966 742.853 144.827 742.853 141.038C742.853 137.249 743.22 135.351 743.22 135.351L746.847 133.934L739.961 125.4C739.961 125.4 734.881 123.028 732.349 124.218C729.816 125.408 729.808 122.553 728.355 120.429C726.901 118.304 720.015 120.903 719.288 119.012V113.807C719.288 113.807 718.976 115.224 718.569 116.727C718.147 115.224 717.85 113.807 717.85 113.807V119.012C717.131 120.911 710.238 118.304 708.784 120.429C707.33 122.553 707.33 125.4 704.79 124.218C702.25 123.035 697.177 125.4 697.177 125.4L690.291 133.934L693.918 135.351C693.918 135.351 694.285 137.249 694.285 141.038C694.285 144.827 692.832 146.966 693.918 149.09C695.004 151.229 697.177 150.046 697.177 150.046C697.177 150.046 697.545 152.419 697.896 153.835C698.264 155.252 700.069 155.974 700.069 155.974C700.069 155.974 700.069 159.055 698.983 159.289C697.896 159.522 696.443 161.187 696.075 161.895C695.708 162.603 698.615 163.078 698.615 163.078C698.615 163.078 697.529 164.976 697.162 166.392C696.794 167.808 699.334 168.765 699.334 168.765C699.334 168.765 698.248 173.984 697.162 176.817C696.075 179.664 696.443 179.423 696.794 180.606C697.162 181.788 697.162 182.978 696.075 183.686C694.989 184.395 697.162 186.059 697.162 186.059V189.614C697.162 189.614 695.708 196.725 693.168 198.857C690.628 200.988 697.881 200.273 697.881 200.981C697.881 201.689 693.535 204.062 692.8 210.698C692.066 217.334 696.427 219.232 694.973 222.539C693.519 225.846 692.066 227.284 691.347 229.65C690.628 232.015 692.8 234.147 692.8 234.147V240.783L684.648 236.395L675.762 244.805L676.129 247.178L678.122 251.215H670.306C668.97 237.724 667.633 224.225 667.36 210.705C667.141 210.705 666.914 210.691 666.695 210.683V179.963L670.853 175.065V173.159H665.851V165.53L667.93 163.355L665.015 160.895V158.172H611.672V148.564L613.227 147.133L611.359 145.301V135.694C611.359 135.694 612.93 134.475 611.672 133.65C610.413 132.825 606.044 127.722 606.044 127.722L604.176 124.247L602.918 127.313C602.918 127.313 598.236 132.825 597.916 133.854C597.595 134.883 597.603 136.103 597.603 136.103L598.846 137.322V139.972L597.603 141.819H542.705L541.446 139.972V137.322L542.705 136.103C542.705 136.103 542.705 134.883 542.392 133.854C542.079 132.825 537.39 127.313 537.39 127.313L536.131 124.247L534.263 127.722C534.263 127.722 529.894 132.832 528.636 133.65C527.378 134.467 528.949 135.694 528.949 135.694V145.301L527.081 147.133L528.652 148.564V158.172H475.308V160.895L472.393 163.355L474.472 165.53V173.159H469.47V175.065L473.628 179.963V194.681H473.261L474.113 259.917H470.642C471.424 248.353 472.112 236.804 472.385 225.226H472.112C471.643 223.809 470.932 222.831 470.658 220.291C470.306 217.042 468.173 219.823 468.173 215.881C468.173 211.939 471.01 211.698 468.173 209.391C465.335 207.07 463.921 208.23 464.272 205.208C464.624 202.186 464.624 200.565 462.858 200.098C461.076 199.631 461.076 197.075 461.076 196.148C461.076 195.221 456.472 193.126 456.472 193.126C456.472 193.126 457.887 192.199 457.887 190.337C457.887 188.476 457.183 184.774 456.105 184.774C455.026 184.774 453.971 182.913 453.971 182.913C453.971 182.913 450.774 177.335 450.774 176.189C450.774 175.043 455.026 175.722 450.774 174.101C446.507 172.473 449.711 166.684 447.226 166.684C444.741 166.684 446.523 165.056 445.092 162.968L443.678 160.88L441.544 155.77C441.544 155.77 443.857 154.083 442.263 152.003C440.669 149.915 440.669 149.572 438.808 148.703C436.948 147.834 437.745 147.141 436.948 145.221C436.151 143.301 436.409 142.79 435.612 142.089C434.814 141.388 434.814 137.738 434.814 137.738C434.814 137.738 435.877 134.606 433.751 134.08C431.618 133.555 434.549 131.467 432.954 130.08C431.36 128.685 429.226 127.291 430.297 126.079C431.36 124.86 435.088 123.29 432.157 123.29C429.226 123.29 428.429 122.254 428.429 122.254C428.429 122.254 427.632 118.253 427.632 116.866C427.632 115.479 426.561 107.989 426.561 107.989L428.421 106.427C428.421 106.427 429.218 103.295 427.085 103.82C424.951 104.346 423.888 104.857 423.888 104.857C423.888 104.857 419.894 101.375 420.691 102.937C421.488 104.499 420.691 110.946 420.691 110.946H420.144C419.519 110.004 418.143 110.186 418.143 110.186C418.143 110.186 418.612 110.062 418.612 109.646C418.612 109.23 417.791 109.142 417.791 109.142C417.791 109.142 420.511 108.712 420.511 107.748C420.511 106.784 418.143 106.12 418.143 106.12C418.143 106.12 418.683 105.923 418.683 105.689C418.683 105.456 418.214 105.346 418.214 105.346C418.214 105.346 418.987 104.842 418.87 104.536C418.753 104.229 418.284 104.105 418.096 103.682C417.963 103.375 417.713 103.156 417.596 103.047V102.988L417.557 103.025L417.518 102.988V103.047C417.385 103.141 417.135 103.375 417.018 103.682C416.838 104.112 416.361 104.222 416.244 104.536C416.127 104.842 416.9 105.346 416.9 105.346C416.9 105.346 416.432 105.456 416.432 105.689C416.432 105.923 416.971 106.12 416.971 106.12C416.971 106.12 414.603 106.777 414.603 107.748C414.603 108.719 417.323 109.142 417.323 109.142C417.323 109.142 416.502 109.215 416.502 109.646C416.502 110.077 416.971 110.186 416.971 110.186C416.971 110.186 415.587 110.004 414.97 110.946H413.188C412.563 110.004 411.171 110.186 411.171 110.186C411.171 110.186 411.64 110.062 411.64 109.646C411.64 109.23 410.82 109.142 410.82 109.142C410.82 109.142 413.54 108.712 413.54 107.748C413.54 106.784 411.171 106.12 411.171 106.12C411.171 106.12 411.711 105.923 411.711 105.689C411.711 105.456 411.242 105.346 411.242 105.346C411.242 105.346 412.016 104.842 411.898 104.536C411.781 104.229 411.312 104.105 411.125 103.682C411.015 103.441 410.843 103.222 410.624 103.047V102.988L410.585 103.025L410.546 102.988V103.047C410.413 103.141 410.163 103.375 410.046 103.682C409.866 104.112 409.389 104.222 409.272 104.536C409.155 104.842 409.929 105.346 409.929 105.346C409.929 105.346 409.46 105.456 409.46 105.689C409.46 105.923 409.999 106.12 409.999 106.12C409.999 106.12 407.631 106.777 407.631 107.748C407.631 108.719 410.351 109.142 410.351 109.142C410.351 109.142 409.53 109.215 409.53 109.646C409.53 110.077 409.999 110.186 409.999 110.186C409.999 110.186 408.616 110.004 407.998 110.946H406.216C405.591 110.004 404.2 110.186 404.2 110.186C404.2 110.186 404.669 110.062 404.669 109.646C404.669 109.23 403.848 109.142 403.848 109.142C403.848 109.142 406.568 108.712 406.568 107.748C406.568 106.784 404.2 106.12 404.2 106.12C404.2 106.12 404.739 105.923 404.739 105.689C404.739 105.456 404.27 105.346 404.27 105.346C404.27 105.346 405.044 104.842 404.927 104.536C404.809 104.229 404.34 104.105 404.153 103.682C404.043 103.441 403.871 103.222 403.653 103.047V102.988L403.613 103.025L403.574 102.988V103.047C403.442 103.141 403.191 103.375 403.074 103.682C402.894 104.112 402.418 104.222 402.3 104.536C402.183 104.842 402.957 105.346 402.957 105.346C402.957 105.346 402.488 105.456 402.488 105.689C402.488 105.923 403.027 106.12 403.027 106.12C403.027 106.12 400.659 106.777 400.659 107.748C400.659 108.719 403.379 109.142 403.379 109.142C403.379 109.142 402.558 109.215 402.558 109.646C402.558 110.077 403.027 110.186 403.027 110.186C403.027 110.186 401.644 110.004 401.011 110.946H399.229C398.604 110.004 397.228 110.186 397.228 110.186C397.228 110.186 397.697 110.062 397.697 109.646C397.697 109.23 396.876 109.142 396.876 109.142C396.876 109.142 399.596 108.712 399.596 107.748C399.596 106.784 397.228 106.12 397.228 106.12C397.228 106.12 397.767 105.923 397.767 105.689C397.767 105.456 397.298 105.346 397.298 105.346C397.298 105.346 398.072 104.842 397.955 104.536C397.838 104.229 397.369 104.105 397.181 103.682C397.072 103.441 396.9 103.222 396.681 103.047V102.988L396.642 103.025L396.587 102.988V103.047C396.454 103.141 396.204 103.375 396.087 103.682C395.907 104.112 395.43 104.222 395.313 104.536C395.196 104.842 395.97 105.346 395.97 105.346C395.97 105.346 395.501 105.456 395.501 105.689C395.501 105.923 396.04 106.12 396.04 106.12C396.04 106.12 393.672 106.777 393.672 107.748C393.672 108.719 396.392 109.142 396.392 109.142C396.392 109.142 395.571 109.215 395.571 109.646C395.571 110.077 396.04 110.186 396.04 110.186C396.04 110.186 394.657 110.004 394.023 110.946H392.241C391.616 110.004 390.241 110.186 390.241 110.186C390.241 110.186 390.71 110.062 390.71 109.646C390.71 109.23 389.889 109.142 389.889 109.142C389.889 109.142 392.609 108.712 392.609 107.748C392.609 106.784 390.241 106.12 390.241 106.12C390.241 106.12 390.78 105.923 390.78 105.689C390.78 105.456 390.311 105.346 390.311 105.346C390.311 105.346 391.085 104.842 390.967 104.536C390.85 104.229 390.381 104.105 390.194 103.682C390.084 103.441 389.912 103.222 389.693 103.047V102.988L389.654 103.025L389.615 102.988V103.047C389.482 103.141 389.232 103.375 389.115 103.682C388.935 104.112 388.459 104.222 388.341 104.536C388.224 104.842 388.998 105.346 388.998 105.346C388.998 105.346 388.529 105.456 388.529 105.689C388.529 105.923 389.068 106.12 389.068 106.12C389.068 106.12 386.7 106.777 386.7 107.748C386.7 108.719 389.42 109.142 389.42 109.142C389.42 109.142 388.599 109.215 388.599 109.646C388.599 110.077 389.068 110.186 389.068 110.186C389.068 110.186 387.685 110.004 387.052 110.946H385.27C384.644 110.004 383.253 110.186 383.253 110.186C383.253 110.186 383.722 110.062 383.722 109.646C383.722 109.23 382.901 109.142 382.901 109.142C382.901 109.142 385.621 108.712 385.621 107.748C385.621 106.784 383.253 106.12 383.253 106.12C383.253 106.12 383.793 105.923 383.793 105.689C383.793 105.456 383.324 105.346 383.324 105.346C383.324 105.346 384.097 104.842 383.98 104.536C383.863 104.229 383.394 104.105 383.206 103.682C383.097 103.441 382.925 103.222 382.706 103.047V102.988L382.667 103.025L382.628 102.988V103.047C382.495 103.141 382.245 103.375 382.128 103.682C381.948 104.112 381.471 104.222 381.354 104.536C381.237 104.842 382.01 105.346 382.01 105.346C382.01 105.346 381.542 105.456 381.542 105.689C381.542 105.923 382.081 106.12 382.081 106.12C382.081 106.12 379.713 106.777 379.713 107.748C379.713 108.719 382.433 109.142 382.433 109.142C382.433 109.142 381.612 109.215 381.612 109.646C381.612 110.077 382.081 110.186 382.081 110.186C382.081 110.186 380.697 110.004 380.064 110.946H378.282C377.657 110.004 376.266 110.186 376.266 110.186C376.266 110.186 376.735 110.062 376.735 109.646C376.735 109.23 375.914 109.142 375.914 109.142C375.914 109.142 378.634 108.712 378.634 107.748C378.634 106.784 376.266 106.12 376.266 106.12C376.266 106.12 376.805 105.923 376.805 105.689C376.805 105.456 376.336 105.346 376.336 105.346C376.336 105.346 377.11 104.842 376.993 104.536C376.875 104.229 376.407 104.105 376.219 103.682C376.11 103.441 375.938 103.222 375.719 103.047V102.988L375.68 103.025L375.641 102.988V103.047C375.508 103.141 375.258 103.375 375.14 103.682C374.961 104.112 374.484 104.222 374.367 104.536C374.249 104.842 375.023 105.346 375.023 105.346C375.023 105.346 374.554 105.456 374.554 105.689C374.554 105.923 375.093 106.12 375.093 106.12C375.093 106.12 372.725 106.777 372.725 107.748C372.725 108.719 375.445 109.142 375.445 109.142C375.445 109.142 374.625 109.215 374.625 109.646C374.625 110.077 375.093 110.186 375.093 110.186C375.093 110.186 373.71 110.004 373.093 110.946H371.311C370.685 110.004 369.31 110.186 369.31 110.186C369.31 110.186 369.779 110.062 369.779 109.646C369.779 109.23 368.958 109.142 368.958 109.142C368.958 109.142 371.678 108.712 371.678 107.748C371.678 106.784 369.31 106.12 369.31 106.12C369.31 106.12 369.849 105.923 369.849 105.689C369.849 105.456 369.38 105.346 369.38 105.346C369.38 105.346 370.154 104.842 370.037 104.536C369.919 104.229 369.45 104.105 369.263 103.682C369.153 103.441 368.981 103.222 368.763 103.047V102.988L368.724 103.025L368.684 102.988V103.047C368.552 103.141 368.301 103.375 368.184 103.682C368.004 104.112 367.528 104.222 367.41 104.536C367.293 104.842 368.067 105.346 368.067 105.346C368.067 105.346 367.598 105.456 367.598 105.689C367.598 105.923 368.137 106.12 368.137 106.12C368.137 106.12 365.769 106.777 365.769 107.748C365.769 108.719 368.489 109.142 368.489 109.142C368.489 109.142 367.668 109.215 367.668 109.646C367.668 110.077 368.137 110.186 368.137 110.186C368.137 110.186 366.754 110.004 366.136 110.946H364.354C363.729 110.004 362.338 110.186 362.338 110.186C362.338 110.186 362.807 110.062 362.807 109.646C362.807 109.23 361.986 109.142 361.986 109.142C361.986 109.142 364.706 108.712 364.706 107.748C364.706 106.784 362.338 106.12 362.338 106.12C362.338 106.12 362.877 105.923 362.877 105.689C362.877 105.456 362.408 105.346 362.408 105.346C362.408 105.346 363.182 104.842 363.065 104.536C362.948 104.229 362.479 104.105 362.291 103.682C362.182 103.441 362.01 103.222 361.791 103.047V102.988L361.752 103.025L361.713 102.988V103.047C361.58 103.141 361.33 103.375 361.205 103.682C361.033 104.112 360.548 104.222 360.431 104.536C360.314 104.842 361.087 105.346 361.087 105.346C361.087 105.346 360.618 105.456 360.618 105.689C360.618 105.923 361.158 106.12 361.158 106.12C361.158 106.12 358.79 106.777 358.79 107.748C358.79 108.719 361.509 109.142 361.509 109.142C361.509 109.142 360.689 109.215 360.689 109.646C360.689 110.077 361.158 110.186 361.158 110.186C361.158 110.186 359.774 110.004 359.141 110.946H358.156C358.156 110.946 357.359 104.507 358.156 102.937C358.954 101.367 354.96 104.857 354.96 104.857C354.96 104.857 353.897 104.331 351.763 103.82C349.629 103.295 350.427 106.427 350.427 106.427L352.287 107.989C352.287 107.989 351.224 115.472 351.224 116.866C351.224 118.261 350.427 122.254 350.427 122.254C350.427 122.254 349.629 123.29 346.698 123.29C343.768 123.29 347.496 124.853 348.559 126.079C349.622 127.306 347.496 128.685 345.901 130.08C344.307 131.474 347.238 133.562 345.104 134.08C342.97 134.606 344.041 137.738 344.041 137.738C344.041 137.738 344.041 141.395 343.244 142.089C342.447 142.782 342.705 143.308 341.907 145.221C341.11 147.141 341.907 147.834 340.047 148.703C338.187 149.572 338.187 149.922 336.593 152.003C334.998 154.091 337.312 155.77 337.312 155.77L335.178 160.88L333.748 162.968C332.333 165.056 334.099 166.684 331.614 166.684C329.128 166.684 332.317 172.48 328.065 174.101C323.814 175.722 328.065 175.028 328.065 176.189C328.065 177.35 324.869 182.913 324.869 182.913C324.869 182.913 323.806 184.774 322.735 184.774C321.664 184.774 320.953 188.49 320.953 190.337C320.953 191.418 321.469 192.447 322.368 193.126C322.368 193.126 317.764 195.214 317.764 196.148C317.764 197.083 317.764 199.631 315.982 200.098C314.2 200.565 314.2 202.186 314.567 205.208C314.919 208.23 313.504 207.07 310.667 209.391C307.83 211.713 310.667 211.946 310.667 215.881C310.667 219.816 308.534 217.042 308.182 220.291C308.104 221.035 307.986 221.634 307.838 222.159L307.916 259.917H297.513C299.217 248.404 299.553 236.804 299.623 225.226H299.28V191.169L302.578 190.695L297.826 187.592V183.292L299.295 181.62V180.19L297.466 179.715V176.846H249.547V172.174L253.549 170.093L249.938 169.4V167.589C249.938 167.173 250.579 166.626 250.579 166.626L249.313 166.078L248.891 163.997L247.187 163.45C247.187 163.45 244.858 155.544 235.721 155.127C235.721 155.127 237.839 154.295 235.932 154.018L231.289 153.383V153.324C231.289 153.324 231.211 153.324 231.071 153.346C230.93 153.324 230.852 153.324 230.852 153.324V153.383L226.209 154.018C224.302 154.302 226.42 155.127 226.42 155.127C217.299 155.544 214.954 163.45 214.954 163.45L213.25 163.997L212.828 166.078L211.562 166.626C211.562 166.626 212.203 167.173 212.203 167.589V169.4L208.592 170.093L212.594 172.174V176.846H206.021L205.442 172.042L207.146 170.246L206.083 169.283V167.202L201.847 165.26L201.636 164.428L201.425 163.318L199.932 162.771C199.932 162.771 201.097 155.208 192.187 151.258C183.277 147.309 175.852 145.783 175.852 145.783L176.391 145.089H175.015L175.445 144.396H173.851V143.848L172.045 143.98L171.834 143.074L170.029 143.418C170.029 143.418 170.451 142.724 168.763 142.235L167.059 141.746C167.059 141.746 167.059 140.57 165.793 140.497C164.902 140.446 164.12 140.439 163.721 140.424H163.463C163.073 140.424 162.283 140.446 161.392 140.497C160.126 140.57 160.126 141.746 160.126 141.746L158.422 142.235C156.718 142.724 157.156 143.418 157.156 143.418L155.351 143.074L155.139 143.98L153.334 143.848V144.396H151.74L152.162 145.089H150.786L151.325 145.783C151.325 145.783 143.908 147.309 134.99 151.258C126.08 155.208 127.245 162.771 127.245 162.771L125.768 163.318L125.556 164.428L125.345 165.26L121.109 167.202V169.283L120.046 170.246L121.75 172.042L121.172 176.846H113.059V172.174L117.061 170.093L113.45 169.4V167.589C113.45 167.173 114.091 166.626 114.091 166.626L112.824 166.078L112.402 163.997L110.699 163.45C110.699 163.45 108.369 155.544 99.2483 155.127C99.2483 155.127 101.366 154.295 99.4593 154.018L94.8167 153.383V153.324C94.8167 153.324 94.7385 153.324 94.5979 153.346C94.4572 153.324 94.379 153.324 94.379 153.324V153.383L89.7364 154.018C87.8293 154.302 89.9474 155.127 89.9474 155.127C80.8263 155.544 78.4816 163.45 78.4816 163.45L76.7777 163.997L76.3478 166.078L75.0816 166.626C75.0816 166.626 75.7225 167.173 75.7225 167.589V169.4L72.1116 170.093L76.1133 172.174V176.846H27.7097V179.715L25.8808 180.19V181.62L27.3502 183.292V187.592L22.5981 190.695L25.8964 191.169V225.226H15.6655V259.917H0L0.0781586 309L1920 308.977V259.917H1892.81L1892.79 260.005V260.085ZM583.081 220.422L576.133 221.152H556.937V188.979C559.985 185.533 568.192 182.905 570.013 182.343C571.834 182.891 580.041 185.533 583.089 188.979V220.415L583.081 220.422ZM846.054 225.372V225.394H817.901V225.372L817.596 190.622L819.339 189.103L817.885 186.256C820.543 180.255 828.828 179.766 831.532 179.781V179.803C831.532 179.803 831.688 179.803 831.962 179.788C832.235 179.788 832.392 179.803 832.392 179.803V179.781C835.104 179.781 843.381 180.255 846.038 186.256L844.584 189.103L846.327 190.622L846.038 225.372H846.054ZM1171.47 204.639H1171.32L1171.47 203.383V204.639ZM1659.6 204.733H1655.33V201.886L1656.44 201.682C1656.64 201.66 1657.18 201.624 1657.47 201.609L1658.49 201.682C1658.75 201.704 1659.6 201.886 1659.6 201.886V204.733ZM1667.66 204.697H1664.79V204.733V201.886L1665.9 201.682C1666.09 201.66 1666.63 201.624 1666.92 201.609L1667.66 201.66V204.704V204.697ZM1716.27 204.697H1711.85V201.901L1713 201.697C1713.19 201.675 1713.75 201.638 1714.06 201.623L1715.12 201.697C1715.4 201.718 1716.27 201.901 1716.27 201.901V204.697ZM1726.35 204.697H1721.92V201.901L1723.07 201.697C1723.27 201.675 1723.83 201.638 1724.13 201.623L1725.18 201.697C1725.46 201.718 1726.33 201.901 1726.33 201.901V204.697H1726.35ZM1740.59 177.021H1736.11V174.035C1736.11 174.035 1737 173.867 1737.29 173.831C1737.65 173.794 1738 173.773 1738.36 173.758L1739.43 173.831C1739.83 173.889 1740.22 173.955 1740.61 174.035V177.021H1740.59ZM1751.31 177.021H1746.81V174.035C1746.81 174.035 1747.7 173.867 1747.99 173.831C1748.35 173.794 1748.7 173.773 1749.06 173.758L1750.13 173.831C1750.53 173.889 1750.92 173.955 1751.31 174.035V177.021ZM1762.03 177.021H1757.52V174.035C1757.52 174.035 1758.41 173.867 1758.7 173.831C1758.91 173.809 1759.48 173.773 1759.77 173.758L1760.85 173.831C1761.24 173.889 1761.63 173.955 1762.03 174.035V177.021ZM1772.74 177.021H1768.26V174.035C1768.26 174.035 1769.15 173.867 1769.44 173.831C1769.79 173.794 1770.15 173.773 1770.51 173.758L1771.58 173.831C1771.98 173.889 1772.37 173.955 1772.76 174.035V177.021H1772.74ZM1783.46 177.021H1778.97V174.035C1778.97 174.035 1779.86 173.867 1780.15 173.831C1780.51 173.794 1780.86 173.773 1781.22 173.758L1782.29 173.831C1782.69 173.889 1783.08 173.955 1783.47 174.035V177.021H1783.46ZM1794.17 177.021H1789.69V174.035C1789.69 174.035 1790.58 173.867 1790.87 173.831C1791.23 173.794 1791.58 173.773 1791.94 173.758L1793.01 173.831C1793.41 173.889 1793.8 173.955 1794.19 174.035V177.021H1794.17ZM1811.45 204.697H1806.25V201.901L1807.61 201.697C1807.84 201.675 1808.5 201.638 1808.85 201.623L1810.09 201.697C1810.42 201.718 1811.45 201.901 1811.45 201.901V204.697H1811.44H1811.45ZM1823.28 204.697H1818.08V201.901L1819.44 201.697C1819.68 201.675 1820.33 201.638 1820.68 201.623L1821.93 201.697C1822.25 201.718 1823.29 201.901 1823.29 201.901V204.697H1823.27H1823.28Z" fill="url(#paint1_linear_362_7)"/>
<defs>
<linearGradient id="paint0_linear_362_7" x1="961" y1="0" x2="961" y2="310" gradientUnits="userSpaceOnUse">
<stop stop-color="#CFE5FD"/>
<stop offset="1" stop-color="#E8F3D2" stop-opacity="0.6"/>
</linearGradient>
<linearGradient id="paint1_linear_362_7" x1="949.758" y1="85" x2="949.758" y2="309" gradientUnits="userSpaceOnUse">
<stop stop-color="#A4D9B7"/>
<stop offset="1" stop-color="white" stop-opacity="0"/>
</linearGradient>
</defs>
</svg>
